<svg width="32" height="32" viewBox="0 0 32 32" fill="none" xmlns="http://www.w3.org/2000/svg">
<path d="M16 2.66663C8.63602 2.66663 2.66669 8.63596 2.66669 16C2.66669 21.9246 6.53402 26.9406 11.88 28.6773H20.12C25.466 26.9406 29.3334 21.9246 29.3334 16C29.3334 8.63596 23.364 2.66663 16 2.66663Z" fill="url(#paint0_linear_76_11)"/>
<path opacity="0.05" d="M20.0067 27.9973L20 24.132C20 23.506 19.8533 22.8946 19.572 22.3406C23.3327 21.5853 25.1627 19.362 25.1627 15.556C25.1627 14.0526 24.7193 12.7253 23.8453 11.6093C23.912 11.398 23.9613 11.1793 23.992 10.9553C24.1173 10.0426 23.9767 9.44597 23.8633 8.96597L23.8453 8.88864C23.7213 8.35797 23.5727 7.97931 23.5667 7.96331L23.4927 7.77531L23.4187 7.58731L23.2173 7.56597L23.0153 7.54464C23.0153 7.54464 22.8827 7.53064 22.6813 7.53064C22.402 7.53064 21.988 7.55864 21.5967 7.69131L21.466 7.73531C20.9727 7.90131 20.5067 8.05864 19.8547 8.44797C19.664 8.56197 19.4553 8.69197 19.232 8.83731C18.2227 8.58731 17.1367 8.45997 16 8.45997C14.852 8.45997 13.7567 8.58797 12.7407 8.84064C12.5147 8.69397 12.3047 8.56264 12.1127 8.44797C11.4607 8.05864 10.9947 7.90197 10.5013 7.73531L10.3707 7.69131C9.98068 7.55864 9.56601 7.53064 9.28668 7.53064C9.08535 7.53064 8.95268 7.54464 8.95268 7.54464L8.75135 7.56597L8.55135 7.58664L8.47668 7.77397L8.40135 7.96264C8.39468 7.97997 8.24601 8.35864 8.12201 8.88997L8.10401 8.96664C7.99068 9.44597 7.85001 10.0433 7.97535 10.9553C8.00735 11.186 8.05868 11.412 8.12868 11.6293C7.27201 12.74 6.83801 14.06 6.83801 15.556C6.83801 19.3526 8.67001 21.5746 12.436 22.336C12.3067 22.5946 12.206 22.868 12.1347 23.152C12.0033 23.1966 11.8827 23.2266 11.776 23.2433C11.6173 23.2673 11.4513 23.2793 11.2833 23.2793C10.826 23.2793 10.4667 23.19 10.3267 23.1066C10.118 22.9826 9.74535 22.622 9.38401 22.0946C9.07535 21.6446 8.59401 21.056 8.05601 20.81C7.59068 20.5973 7.09801 20.4753 6.70335 20.4753C6.61135 20.4753 6.52668 20.482 6.45268 20.494C6.10801 20.5486 5.82001 20.738 5.66335 21.014C5.52801 21.252 5.50668 21.5293 5.60468 21.7746C5.75068 22.14 6.17201 22.4313 6.50001 22.6113C6.66135 22.7 7.01001 23.024 7.21335 23.3506C7.36601 23.596 7.43668 23.7706 7.53468 24.012C7.59268 24.1553 7.65668 24.3113 7.74335 24.5C8.05668 25.1813 9.03468 25.7826 9.14535 25.8486C9.68268 26.1706 10.586 26.274 11.25 26.304L11.332 26.306H11.3327C11.4927 26.306 11.7127 26.2906 12.002 26.2586V28.0006C12.0033 28.3533 11.644 28.4333 11.1687 28.426L11.5333 28.5486C12.93 29.048 14.43 29.3333 16 29.3333C17.57 29.3333 19.07 29.048 20.4687 28.5493L20.9373 28.3746C20.4633 28.3586 20.0107 28.2813 20.0067 27.9973Z" fill="black"/>
<path opacity="0.07" d="M20.5206 28.5313C20.25 28.5627 19.6666 28.4587 19.6666 28.0013V24.132C19.6666 23.4027 19.448 22.698 19.0426 22.0973C22.986 21.4593 24.8286 19.3687 24.8286 15.556C24.8286 14.0647 24.3713 12.76 23.4693 11.6747C23.5606 11.4313 23.6246 11.1747 23.6613 10.91C23.778 10.0593 23.6506 9.51935 23.5386 9.04268L23.5206 8.96535C23.402 8.45801 23.262 8.10068 23.256 8.08601L23.182 7.89801L22.98 7.87668C22.98 7.87668 22.8613 7.86401 22.6806 7.86401C22.4266 7.86401 22.0513 7.88868 21.7033 8.00735L21.5726 8.05135C21.0966 8.21201 20.6466 8.36335 20.0253 8.73401C19.804 8.86601 19.5573 9.02135 19.2913 9.19668C18.2693 8.92935 17.1633 8.79335 16 8.79335C14.8253 8.79335 13.71 8.93001 12.6806 9.20001C12.412 9.02335 12.164 8.86735 11.9413 8.73401C11.32 8.36335 10.87 8.21135 10.394 8.05135L10.2633 8.00735C9.91597 7.88935 9.53997 7.86401 9.28597 7.86401C9.1053 7.86401 8.98664 7.87668 8.98664 7.87668L8.78531 7.89801L8.70997 8.08668C8.70397 8.10135 8.56397 8.45868 8.4453 8.96601L8.4273 9.04335C8.31464 9.52001 8.1873 10.0593 8.30464 10.91C8.34197 11.1813 8.40864 11.444 8.5033 11.6927C7.61864 12.7727 7.17064 14.0707 7.17064 15.556C7.17064 19.358 9.01464 21.448 12.9613 22.0933C12.698 22.4867 12.514 22.93 12.4193 23.4027C12.1993 23.4893 12 23.5467 11.8253 23.5733C11.65 23.6 11.4673 23.6133 11.2826 23.6133C10.8226 23.6133 10.3806 23.5273 10.156 23.394C9.86264 23.22 9.4513 22.7847 9.10797 22.284C8.87464 21.944 8.40997 21.3393 7.91597 21.114C7.49264 20.9207 7.05064 20.8093 6.70197 20.8093C6.62864 20.8093 6.56197 20.8147 6.5033 20.824C6.2593 20.8627 6.05797 20.992 5.9513 21.18C5.86597 21.3293 5.85197 21.502 5.91197 21.652C6.0313 21.9507 6.4733 22.2187 6.65797 22.32C6.8813 22.4427 7.27064 22.816 7.49397 23.176C7.6613 23.4453 7.74064 23.6407 7.8413 23.8873C7.89797 24.0267 7.95997 24.1787 8.04397 24.362C8.26464 24.8413 8.94597 25.3433 9.31397 25.564C9.81664 25.8653 10.75 25.9493 11.262 25.972L11.336 25.9733C11.5353 25.9733 11.8693 25.9433 12.3326 25.8833V28.0013C12.3326 28.5207 11.672 28.5413 11.51 28.5413C11.4893 28.5413 11.8453 28.664 11.8453 28.664C13.154 29.0933 14.548 29.3333 16 29.3333C17.452 29.3333 18.846 29.0933 20.154 28.6647C20.154 28.6647 20.5413 28.5287 20.5206 28.5313Z" fill="black"/>
<path d="M24.496 15.556C24.496 14.016 23.9747 12.7387 23.0847 11.7373C23.1814 11.5207 23.282 11.23 23.332 10.8647C23.4467 10.0313 23.3114 9.53134 23.1967 9.04201C23.082 8.55268 22.9467 8.20868 22.9467 8.20868C22.9467 8.20868 22.332 8.14601 21.8114 8.32334C21.2907 8.50068 20.8427 8.63601 20.1967 9.02134C19.8947 9.20134 19.5907 9.39868 19.35 9.55868C18.3214 9.27334 17.19 9.12668 16 9.12668C14.7994 9.12668 13.658 9.27401 12.622 9.56134C12.3807 9.40068 12.0747 9.20201 11.7707 9.02068C11.1247 8.63534 10.6767 8.50001 10.156 8.32268C9.63536 8.14534 9.02069 8.20801 9.02069 8.20801C9.02069 8.20801 8.88536 8.55201 8.77069 9.04134C8.65603 9.53068 8.52069 10.0307 8.63536 10.864C8.68669 11.2387 8.79069 11.5347 8.89002 11.7527C8.01669 12.748 7.50469 14.0173 7.50469 15.5553C7.50469 19.544 9.65936 21.3647 13.5854 21.8453C13.1274 22.3293 12.82 22.9493 12.7167 23.6393C12.4587 23.7527 12.1614 23.8593 11.8754 23.902C11.1394 24.0133 10.3614 23.902 9.98669 23.68C9.61202 23.458 9.16736 22.958 8.83403 22.4713C8.55269 22.0607 8.14669 21.584 7.77869 21.416C7.29269 21.194 6.82002 21.1107 6.55669 21.152C6.29269 21.194 6.16802 21.388 6.22336 21.5273C6.27869 21.666 6.54269 21.8747 6.82069 22.0273C7.09869 22.18 7.52936 22.5967 7.77936 22.9993C8.05802 23.4487 8.11269 23.708 8.34869 24.2213C8.51469 24.5827 9.08269 25.034 9.48736 25.2767C9.83469 25.4853 10.5287 25.604 11.2794 25.638C11.5387 25.65 12.1514 25.574 12.668 25.5007V28.0007C12.668 28.4267 12.278 28.7507 11.874 28.676C13.1707 29.112 14.5554 29.3333 16 29.3333C17.444 29.3333 18.8287 29.112 20.1267 28.6773C19.7234 28.7513 19.3334 28.4273 19.3334 28.0013V24.132C19.3334 23.246 18.982 22.4453 18.418 21.8487C22.3154 21.3807 24.496 19.6033 24.496 15.556ZM7.49269 21.818C7.39003 21.7653 7.33469 21.668 7.36936 21.5993C7.40402 21.5307 7.51603 21.518 7.61869 21.5707C7.72136 21.6233 7.77669 21.7207 7.74202 21.7893C7.70736 21.858 7.59536 21.8707 7.49269 21.818ZM8.30069 22.3213C8.24669 22.38 8.13069 22.3613 8.04136 22.28C7.95203 22.1987 7.92336 22.0847 7.97736 22.026C8.03136 21.9673 8.14736 21.986 8.23669 22.0673C8.32602 22.1487 8.35469 22.2627 8.30069 22.3213ZM8.80336 23.1547C8.73536 23.2027 8.62003 23.158 8.54603 23.0547C8.47203 22.9513 8.46736 22.828 8.53536 22.78C8.60336 22.732 8.71869 22.7767 8.79269 22.88C8.86603 22.9833 8.87136 23.1067 8.80336 23.1547ZM9.52536 23.782C9.47936 23.8567 9.34869 23.86 9.23402 23.79C9.11936 23.72 9.06336 23.6027 9.10936 23.528C9.15536 23.4533 9.28602 23.45 9.40069 23.52C9.51536 23.59 9.57136 23.7073 9.52536 23.782ZM10.208 24.396C10.066 24.3787 9.96069 24.29 9.97269 24.198C9.98402 24.106 10.1087 24.046 10.25 24.0633C10.392 24.0807 10.4974 24.1693 10.4854 24.2613C10.474 24.3527 10.35 24.4133 10.208 24.396ZM11.3087 24.5553C11.1574 24.5467 11.0394 24.46 11.0454 24.3627C11.0514 24.2653 11.1787 24.1927 11.33 24.2013C11.4814 24.21 11.5994 24.2967 11.5934 24.394C11.5874 24.492 11.46 24.564 11.3087 24.5553ZM12.3474 24.4513C12.186 24.4513 12.0554 24.3673 12.0554 24.264C12.0554 24.1607 12.186 24.0767 12.3474 24.0767C12.5087 24.0767 12.6394 24.1607 12.6394 24.264C12.6394 24.3673 12.508 24.4513 12.3474 24.4513Z" fill="white"/>
<defs>
<linearGradient id="paint0_linear_76_11" x1="2.66669" y1="15.672" x2="29.3334" y2="15.672" gradientUnits="userSpaceOnUse">
<stop stop-color="#4C4C4C"/>
<stop offset="1" stop-color="#343434"/>
</linearGradient>
</defs>
</svg>
