<svg width="575" height="521" viewBox="0 0 575 521" fill="none" xmlns="http://www.w3.org/2000/svg">
<path d="M508.623 472.464C460.017 494.558 371.221 458.867 306.37 448.539C241.519 438.538 201.329 454.226 187.694 436.512C174.058 418.797 187.041 367.81 164.402 325.386C141.763 282.962 82.9792 249.362 61.1882 193.603C39.0056 138.237 53.8158 60.6445 100.203 24.2344C146.591 -11.8488 225.013 -7.20769 267.159 35.2816C309.698 77.3134 316.418 157.193 361.37 205.827C406.779 254.069 490.485 271.457 528.065 320.287C565.645 369.117 557.228 449.977 508.623 472.464Z" fill="#F55C4A"/>
<path d="M41.4849 106.794C49.2488 93.1325 61.9711 89.6026 83.8274 97.1199C79.3909 87.1186 92.6352 67.3774 113.774 88.2952C107.445 54.7613 157.617 50.9046 155.138 83.3272C167.664 67.6389 200.808 76.5943 187.955 95.2896C207.332 90.4524 215.161 94.9628 227.883 106.86H41.4849V106.794Z" fill="#FAF6EB"/>
<path d="M190.369 154.382H113.97C111.099 144.512 112.86 133.334 144.046 142.355C153.833 124.117 172.884 142.289 190.369 154.382Z" fill="#FAF6EB"/>
<path d="M574.257 393.957H432.745C437.117 380.883 462.692 370.097 494.53 379.118C503.86 361.796 518.866 364.933 532.958 384.282C551.618 372.647 571.712 389.708 574.257 393.957Z" fill="#FAF6EB"/>
<path fill-rule="evenodd" clip-rule="evenodd" d="M426.286 403.108C413.955 407.03 420.219 418.012 417.087 429.583C416.5 431.74 415.652 433.701 414.804 435.662L414.086 437.231L416.043 439.715L412.716 440.303C412.716 440.303 412.39 441.022 412.259 441.414C411.281 444.094 410.563 446.905 410.824 450.173C411.541 460.502 421.263 467.561 432.028 465.731C436.399 465.012 439.27 463.574 441.292 462.201L440.835 456.841L444.75 457.952C444.75 457.952 446.968 452.461 446.316 447.036C445.402 439.649 441.227 431.086 439.335 425.072C437.051 417.685 439.009 399.056 426.286 403.108Z" fill="#FAF6EB"/>
<path fill-rule="evenodd" clip-rule="evenodd" d="M428.309 424.876L428.7 477.04L428.309 424.876Z" fill="#FAF6EB"/>
<path d="M428.309 424.876L428.7 477.04" stroke="#1C2628" stroke-width="2.13" stroke-linecap="round" stroke-linejoin="round"/>
<path d="M176.994 171.182C190.76 180.268 198.459 198.571 190.108 224.719C182.735 247.663 149.657 269.365 180.778 290.741C232.45 326.366 312.764 259.037 333.772 231.713C363.719 192.819 405.931 207.069 398.297 220.47C387.597 239.165 381.791 249.689 409.78 257.73C447.751 268.581 509.732 225.83 522.063 288.649C523.498 295.905 523.302 303.357 523.955 310.678" stroke="#1C2628" stroke-width="2.13" stroke-linecap="round" stroke-linejoin="round"/>
<path fill-rule="evenodd" clip-rule="evenodd" d="M241.519 220.012C228.992 227.464 216.205 234.589 203.874 242.433C174.841 260.867 191.413 294.597 184.105 305.187C165.707 331.988 129.824 339.701 115.796 370.032C106.01 391.211 123.43 412.325 139.675 423.634C142.807 425.857 146.33 428.863 150.114 428.471C157.486 427.687 163.423 421.346 170.731 420.3C183.714 418.405 197.154 422 210.137 419.843C237.604 415.136 263.897 405.004 291.234 399.775C313.416 395.526 336.251 395.33 358.499 391.473C364.762 390.362 372.2 380.099 374.288 375.981C377.811 368.986 380.682 361.534 382.509 353.886C387.728 332.642 393.078 302.311 381.856 281.85C371.222 262.567 343.559 277.013 333.446 260.214C322.42 241.91 304.217 217.79 278.577 218.705C271.726 218.966 264.941 220.6 258.156 221.581" fill="#FAF6EB"/>
<path fill-rule="evenodd" clip-rule="evenodd" d="M234.864 226.549C234.864 224.98 233.755 223.673 232.32 223.673C230.95 223.673 227.818 224.457 227.688 226.026C227.231 231.125 226.252 239.492 226.252 239.492C226.252 239.492 228.927 243.349 230.754 239.492C231.863 237.204 231.928 229.491 232.255 229.491C233.69 229.491 234.864 228.183 234.864 226.549Z" fill="#FAF6EB" stroke="#1C2628" stroke-width="2.13" stroke-linecap="round" stroke-linejoin="round"/>
<path fill-rule="evenodd" clip-rule="evenodd" d="M373.44 318.195L352.04 347.742L293.517 384.609L251.762 388.335L270.226 369.182L304.935 362.972L306.305 343.297L279.229 314.273L294.496 287.276L302.912 272.307C302.912 272.307 307.871 268.319 326.4 277.863C335.403 282.504 346.755 292.113 356.02 300.807C365.872 310.024 373.44 318.195 373.44 318.195Z" fill="#47584E" stroke="#1C2628" stroke-width="2.13" stroke-linecap="round" stroke-linejoin="round"/>
<path fill-rule="evenodd" clip-rule="evenodd" d="M355.955 300.807C355.694 304.533 354.715 307.279 353.019 308.128C350.018 309.632 346.299 304.206 333.315 299.238C330.706 298.258 330.314 298.258 320.593 295.643C299.976 290.021 295.997 288.387 294.496 287.276L302.912 272.307C302.912 272.307 307.871 268.319 326.4 277.863C335.338 282.569 346.69 292.179 355.955 300.807Z" fill="#1C2628" stroke="#1C2628" stroke-width="2.13" stroke-linecap="round" stroke-linejoin="round"/>
<path fill-rule="evenodd" clip-rule="evenodd" d="M231.928 213.279C225.73 210.534 227.361 199.29 235.778 193.08C244.129 186.87 257.83 190.335 261.288 190.139C280.73 189.158 287.254 209.423 280.86 229.425C279.034 235.243 263.375 249.755 257.047 245.963C250.588 242.107 263.18 223.542 257.699 219.293" fill="#FAF6EB"/>
<path fill-rule="evenodd" clip-rule="evenodd" d="M263.636 236.289L266.05 256.291L273.096 265.247C273.096 265.247 266.376 274.464 254.698 273.091C242.954 271.784 239.366 264.397 239.366 264.397L238.453 238.381L263.636 236.289Z" fill="#F45B49" stroke="#1C2628" stroke-width="2.13" stroke-linecap="round" stroke-linejoin="round"/>
<path fill-rule="evenodd" clip-rule="evenodd" d="M272.705 229.491C271.922 235.439 270.617 240.538 266.637 244.264C262.005 248.643 254.241 251.062 247.717 250.212C237.735 248.905 230.884 243.087 229.775 233.805C229.514 231.844 229.58 229.752 229.841 227.464C230.689 220.927 229.906 207.788 231.863 205.827C234.538 203.605 247.521 200.598 247.521 200.598C247.521 200.598 258.808 204.847 261.222 205.174C267.094 206.416 274.401 216.482 272.705 229.491Z" fill="#47584E" stroke="#1C2628" stroke-width="2.13" stroke-linecap="round" stroke-linejoin="round"/>
<path fill-rule="evenodd" clip-rule="evenodd" d="M243.607 220.143C241.454 222.758 235.647 227.595 236.626 229.294C237.865 231.517 242.824 228.968 243.281 228.445" fill="#47584E"/>
<path d="M243.607 220.143C241.454 222.758 235.647 227.595 236.626 229.294C237.865 231.517 242.824 228.968 243.281 228.445" stroke="#1C2628" stroke-width="2.13" stroke-linecap="round" stroke-linejoin="round"/>
<path fill-rule="evenodd" clip-rule="evenodd" d="M266.507 259.821L267.29 240.865C267.29 240.865 252.219 236.55 248.565 241.845C244.912 247.14 251.566 261.848 251.566 261.848L262.592 261.979" fill="#49574E"/>
<path fill-rule="evenodd" clip-rule="evenodd" d="M270.226 219.881C269.508 220.012 272.64 216.94 276.293 221.189C278.838 224.196 276.163 232.694 270.291 229.752" fill="#47584E"/>
<path d="M270.226 219.881C269.508 220.012 272.64 216.94 276.293 221.189C278.838 224.196 276.163 232.694 270.291 229.752" stroke="#1C2628" stroke-width="2.13" stroke-linecap="round" stroke-linejoin="round"/>
<path d="M273.618 223.542L273.488 224.065L273.096 224.915L272.379 225.699" stroke="#1C2628" stroke-width="2.13" stroke-linecap="round" stroke-linejoin="round"/>
<path fill-rule="evenodd" clip-rule="evenodd" d="M253.589 250.016L237.8 247.728L237.604 261.652C237.604 261.652 243.215 260.214 247.848 257.533C252.545 254.853 253.589 250.016 253.589 250.016Z" fill="#1C2628" stroke="#1C2628" stroke-width="2.13" stroke-linecap="round" stroke-linejoin="round"/>
<path fill-rule="evenodd" clip-rule="evenodd" d="M371.091 391.996C366.655 417.882 372.07 450.37 347.277 462.986C330.51 471.549 302.26 469.196 277.533 465.666C264.811 463.835 253.002 461.678 244.259 460.502C229.188 458.475 213.987 459.26 199.046 456.187C191.152 454.553 183.583 452.984 175.754 451.089C171.253 449.977 164.402 452.004 160.292 450.043C157.225 448.539 158.4 432.263 157.682 429.06C156.899 425.53 149.266 410.822 150.44 408.338C151.615 405.854 166.359 403.37 168.708 402.651C188.15 396.833 195.784 390.885 216.14 390.035C224.621 389.708 302.521 387.42 310.807 380.23C316.809 375 323.66 366.894 323.79 359.704C323.855 357.416 350.279 364.28 364.436 366.96C369.59 367.94 373.244 368.725 373.831 369.052C377.159 371.013 371.548 389.25 371.091 391.996Z" fill="#F3A140" stroke="#1C2628" stroke-width="2.13" stroke-linecap="round" stroke-linejoin="round"/>
<path fill-rule="evenodd" clip-rule="evenodd" d="M371.091 391.996C366.655 417.882 372.07 450.37 347.277 462.986C330.51 471.549 302.26 469.196 277.533 465.666C289.929 450.762 318.701 464.162 341.145 443.179C348.778 435.989 342.841 431.478 345.777 422.392C349.757 409.907 340.492 402.978 341.928 392.257C343.298 381.798 353.867 371.732 364.502 367.025C369.656 368.006 373.309 368.79 373.896 369.117C377.159 371.013 371.548 389.25 371.091 391.996Z" fill="#1C2628" stroke="#1C2628" stroke-width="2.13" stroke-linecap="round" stroke-linejoin="round"/>
<path fill-rule="evenodd" clip-rule="evenodd" d="M321.963 502.272C315.635 509.855 271.987 482.139 261.027 482.531C255.024 482.727 246.804 483.511 237.017 484.623C190.043 489.852 108.946 501.945 86.0456 490.244C73.9105 484.034 66.2771 477.824 62.2321 471.876C37.1136 434.943 145.416 404.22 145.416 404.22L159.117 433.897C159.117 433.897 235.843 429.648 263.245 433.505C276.62 435.4 292.474 440.434 292.474 440.564C292.735 446.709 328.292 494.624 321.963 502.272Z" fill="#47584E" stroke="#1C2628" stroke-width="2.13" stroke-linecap="round" stroke-linejoin="round"/>
<path fill-rule="evenodd" clip-rule="evenodd" d="M237.017 484.623C190.043 489.852 108.946 501.945 86.0456 490.244C73.9105 484.034 66.2771 477.824 62.2321 471.876C68.7563 466.385 78.2818 463.639 85.9804 465.993C95.1144 468.803 94.0052 476.648 102.617 479.916C115.601 484.949 125.583 469.98 144.764 469.849C157.617 469.784 159.509 480.635 173.014 480.308C181.43 480.112 183.91 476.452 192.522 474.49C207.789 470.961 221.033 477.432 228.47 480.7C230.493 481.55 233.69 482.923 237.017 484.623Z" fill="#1C2628" stroke="#1C2628" stroke-width="2.13" stroke-linecap="round" stroke-linejoin="round"/>
<path fill-rule="evenodd" clip-rule="evenodd" d="M323.79 359.769C323.79 359.769 355.889 229.817 413.368 261.848C453.427 284.138 406.844 406.181 408.54 450.827C408.932 461.874 447.425 477.955 439.074 483.119C430.658 488.349 363.262 475.079 357.194 473.902C357.064 473.902 355.563 451.416 355.563 437.95C355.563 410.234 356.281 363.888 356.281 363.888L323.79 359.769Z" fill="#47584E" stroke="#1C2628" stroke-width="2.13" stroke-linecap="round" stroke-linejoin="round"/>
<path fill-rule="evenodd" clip-rule="evenodd" d="M278.707 434.224L303.239 487.695L284.122 492.728C284.122 492.728 312.568 508.22 326.726 515.084C331.162 517.241 334.359 518.287 336.708 518.81L290.908 433.832L278.707 434.224Z" fill="#FAF6EB" stroke="#1C2628" stroke-width="2.13" stroke-linecap="round" stroke-linejoin="round"/>
<path fill-rule="evenodd" clip-rule="evenodd" d="M298.345 433.505L290.908 433.766L336.708 518.745C341.862 519.791 342.776 517.96 342.776 517.96L298.345 433.505Z" fill="#1C2628" stroke="#1C2628" stroke-width="2.13" stroke-linecap="round" stroke-linejoin="round"/>
<path fill-rule="evenodd" clip-rule="evenodd" d="M446.642 480.112C435.29 469.196 409.649 450.5 409.649 450.5L412.781 467.561L354.193 463.116L354.063 475.013L454.014 489.002C452.905 486.91 450.687 484.034 446.642 480.112Z" fill="#FAF6EB" stroke="#1C2628" stroke-width="2.13" stroke-linecap="round" stroke-linejoin="round"/>
<path fill-rule="evenodd" clip-rule="evenodd" d="M354.128 475.144L354.063 480.374L454.993 494.232C454.993 494.232 456.233 492.924 454.08 489.068L354.128 475.144Z" fill="#1C2628" stroke="#1C2628" stroke-width="2.13" stroke-linecap="round" stroke-linejoin="round"/>
<path fill-rule="evenodd" clip-rule="evenodd" d="M313.612 381.602C313.612 381.602 284.84 394.545 261.809 397.16C238.779 399.775 216.401 390.231 216.401 390.231L219.01 347.415L209.55 339.767L192.13 385.198C192.13 385.198 161.923 447.624 132.237 427.36C102.552 407.161 102.03 341.924 99.6814 332.445C98.1155 326.17 98.246 302.703 96.0278 283.55C94.8534 273.876 95.1796 269.3 95.1796 269.3C95.1796 269.3 99.2899 265.508 103.661 274.268L104.64 285.642L107.837 295.512C107.837 295.512 121.211 287.08 127.344 289.302C133.542 291.525 133.608 301.265 133.608 301.461C133.608 301.461 132.564 303.88 128.649 301.918C126.692 300.938 124.017 296.035 124.017 296.035L118.276 302.964L119.646 313.096L125.517 310.024C125.517 310.024 126.692 307.475 128.91 305.448C131.128 303.357 134.325 304.533 134.325 304.533L132.107 316.038L123.43 323.163L142.22 377.092C142.22 377.092 142.611 376.438 143.329 375.262C147.504 368.136 162.445 341.662 169.817 314.861C176.994 288.976 195.066 281.393 201.069 279.563C202.308 279.17 203.026 279.04 203.026 279.04L295.67 277.144L300.955 340.159L313.612 381.602Z" fill="#47584E" stroke="#1C2628" stroke-width="2.13" stroke-linecap="round" stroke-linejoin="round"/>
<path fill-rule="evenodd" clip-rule="evenodd" d="M205.114 293.028C197.611 300.35 185.41 307.54 181.561 314.861C176.733 323.882 180.256 326.889 176.015 343.885C173.797 352.84 171.84 360.423 165.903 367.744C161.27 373.366 151.81 381.733 146.199 379.053C145.351 378.661 144.242 377.811 143.264 375.262C147.439 368.136 162.38 341.662 169.752 314.861C176.929 288.976 195.001 281.393 201.003 279.563C201.33 279.366 201.721 279.17 202.047 279.04L205.114 293.028Z" fill="#1C2628" stroke="#1C2628" stroke-width="2.13" stroke-linecap="round" stroke-linejoin="round"/>
<path d="M96.4845 329.242C54.7291 353.102 135.369 354.475 137.783 325.516" stroke="#1C2628" stroke-width="2.13" stroke-linecap="round" stroke-linejoin="round"/>
<path fill-rule="evenodd" clip-rule="evenodd" d="M308.132 335.845C306.696 337.087 304.87 337.936 302.586 338.394C295.997 339.832 261.614 343.362 238.453 345.715C238.257 345.715 237.996 345.781 237.8 345.781C225.665 347.023 216.792 347.872 216.792 347.872C216.792 347.872 215.226 347.611 213.269 346.238C210.203 344.146 206.157 339.374 205.57 328.85C205.114 321.006 207.267 303.03 207.267 303.03L205.114 293.094L202.047 279.105V278.974C202.047 278.974 218.619 275.51 227.1 270.084C235.647 264.659 236.104 257.337 236.104 257.337L268.529 254.657L269.508 254.592C269.508 254.592 273.031 259.364 278.773 262.894C279.686 263.417 280.599 263.94 281.578 264.397C283.144 265.116 284.84 265.705 286.667 266.031C287.841 266.293 289.081 266.489 290.321 266.75C298.933 268.45 308.719 270.411 308.719 270.411L300.368 291.721C300.368 291.721 307.414 303.291 309.437 309.959C313.351 322.967 313.156 331.596 308.132 335.845Z" fill="#F3A140" stroke="#1C2628" stroke-width="2.13" stroke-linecap="round" stroke-linejoin="round"/>
<path d="M357.651 347.349L355.824 369.313" stroke="#1C2628" stroke-width="2.13" stroke-linecap="round" stroke-linejoin="round"/>
<path d="M187.368 391.865C195.784 388.924 209.681 387.485 209.681 387.485C209.681 387.485 208.571 396.768 230.689 400.886C252.806 405.004 270.291 402.193 270.291 402.193" stroke="#1C2628" stroke-width="2.13" stroke-linecap="round" stroke-linejoin="round"/>
<path fill-rule="evenodd" clip-rule="evenodd" d="M242.106 183.145C242.106 177.784 246.738 173.405 252.48 173.405C258.221 173.405 262.853 177.784 262.853 183.145C262.853 188.505 258.221 192.884 252.48 192.884C246.738 192.819 242.106 188.505 242.106 183.145Z" fill="#FAF6EB"/>
<path fill-rule="evenodd" clip-rule="evenodd" d="M231.928 219.881C234.147 220.993 237.083 220.274 239.105 218.901L231.928 219.881Z" fill="#47584E"/>
<path d="M231.928 219.881C234.147 220.993 237.083 220.274 239.105 218.901" stroke="#1C2628" stroke-width="2.13" stroke-linecap="round" stroke-linejoin="round"/>
<path fill-rule="evenodd" clip-rule="evenodd" d="M252.284 218.116C256.133 220.012 257.96 218.966 261.679 217.201L252.284 218.116Z" fill="#47584E"/>
<path d="M252.284 218.116C256.133 220.012 257.96 218.966 261.679 217.201" stroke="#1C2628" stroke-width="2.13" stroke-linecap="round" stroke-linejoin="round"/>
<path d="M127.344 438.799C121.864 438.473 115.796 440.957 110.838 443.571C108.946 444.552 103.792 448.147 105.684 447.232C127.736 436.315 152.985 432.524 177.19 431.936" stroke="#1C2628" stroke-width="2.13" stroke-linecap="round" stroke-linejoin="round"/>
<path d="M113.121 478.347C114.687 489.068 132.564 483.184 138.501 481.55C150.44 478.151 162.249 473.706 174.515 471.353C192.587 467.823 210.79 470.111 228.405 474.621" stroke="#1C2628" stroke-width="2.13" stroke-linecap="round" stroke-linejoin="round"/>
<path d="M190.76 479.001C199.437 477.301 204.787 479.001 213.595 479.655" stroke="#1C2628" stroke-width="2.13" stroke-linecap="round" stroke-linejoin="round"/>
<path d="M413.955 292.636C409.976 300.35 400.515 314.077 407.301 323.359C413.238 331.53 419.175 316.496 417.152 315.646C415.13 314.796 414.999 319.503 414.282 321.594C412.324 327.02 410.367 332.511 409.128 338.132C406.322 351.141 404.365 383.563 403.451 395.33" stroke="#1C2628" stroke-width="2.13" stroke-linecap="round" stroke-linejoin="round"/>
<path d="M410.628 367.221C410.628 383.563 404.952 408.599 403.778 416.901" stroke="#1C2628" stroke-width="2.13" stroke-linecap="round" stroke-linejoin="round"/>
<path fill-rule="evenodd" clip-rule="evenodd" d="M100.138 308.782C100.921 303.357 104.509 298.585 108.685 295.447L100.138 308.782Z" fill="#47584E"/>
<path d="M100.138 308.782C100.921 303.357 104.509 298.585 108.685 295.447" stroke="#1C2628" stroke-width="2.13" stroke-linecap="round" stroke-linejoin="round"/>
<path fill-rule="evenodd" clip-rule="evenodd" d="M246.217 187.263H258.352C259.983 187.263 261.288 188.57 261.288 190.204C261.288 191.838 259.983 193.146 258.352 193.146H246.217C244.585 193.146 243.281 191.838 243.281 190.204C243.281 188.57 244.585 187.263 246.217 187.263Z" fill="#F45B49" stroke="#1C2628" stroke-width="2.13" stroke-linecap="round" stroke-linejoin="round"/>
<path fill-rule="evenodd" clip-rule="evenodd" d="M258.482 354.801C260.766 355.978 296.584 377.549 296.584 377.549C303.108 382.125 298.476 386.243 293.909 392.846L290.451 397.944C285.884 404.481 277.663 397.487 271.139 392.846L243.607 375.392C239.105 370.686 256.199 353.69 258.482 354.801Z" fill="#1C2628" stroke="#1C2628" stroke-width="2.13" stroke-linecap="round" stroke-linejoin="round"/>
<path fill-rule="evenodd" clip-rule="evenodd" d="M313.286 327.739L320.724 350.814C313.873 361.011 296.519 366.437 296.519 366.437C296.519 366.437 278.577 366.764 273.749 371.143C268.66 375.785 291.495 373.235 289.407 374.673C285.232 377.549 278.773 382.191 278.773 382.191L266.833 385.067C266.833 385.067 253.197 382.06 249.805 381.537C246.412 381.014 243.281 384.282 243.281 384.282C243.281 384.282 262.331 393.369 268.334 392.911C294.888 390.819 303.826 386.962 303.826 386.962L316.809 381.798L324.116 361.273" fill="#47584E"/>
<path d="M313.286 327.739L320.724 350.814C313.873 361.011 296.519 366.437 296.519 366.437C296.519 366.437 278.577 366.764 273.749 371.143C268.66 375.785 291.495 373.235 289.407 374.673C285.232 377.549 278.773 382.191 278.773 382.191L266.833 385.067C266.833 385.067 253.197 382.06 249.805 381.537C246.412 381.014 243.281 384.282 243.281 384.282C243.281 384.282 262.331 393.369 268.334 392.911C294.888 390.819 303.826 386.962 303.826 386.962L316.809 381.798L324.116 361.273" stroke="#FAF6EB" stroke-width="2.13" stroke-linecap="round" stroke-linejoin="round"/>
<path d="M323.855 360.031L309.698 400.624" stroke="#1C2628" stroke-width="2.13" stroke-linecap="round" stroke-linejoin="round"/>
<path d="M284.122 419.058C285.623 425.072 293.061 430.105 296.845 435.204" stroke="#1C2628" stroke-width="2.13" stroke-linecap="round" stroke-linejoin="round"/>
<path fill-rule="evenodd" clip-rule="evenodd" d="M270.943 223.542C270.943 221.973 272.053 220.666 273.488 220.666C274.858 220.666 277.99 221.45 278.12 223.019C278.577 228.118 279.555 236.485 279.555 236.485C279.555 236.485 276.881 240.342 275.054 236.485C273.945 234.197 273.879 226.484 273.488 226.484C272.118 226.418 270.943 225.111 270.943 223.542Z" fill="#FAF6EB" stroke="#1C2628" stroke-width="2.13" stroke-linecap="round" stroke-linejoin="round"/>
<path d="M3.77459 345.584C0.381972 362.057 0.512454 381.668 9.84216 395.591C19.2371 409.645 37.0484 420.758 54.0115 420.627C83.175 420.496 108.489 393.434 137.587 394.937C151.876 395.656 157.16 415.921 166.947 426.379" stroke="#1C2628" stroke-width="2.13" stroke-linecap="round" stroke-linejoin="round"/>
<path d="M410.628 238.446C426.286 264.659 502.098 209.292 531.98 262.632" stroke="#1C2628" stroke-width="2.13" stroke-linecap="round" stroke-linejoin="round"/>
<path d="M443.902 270.738C473.196 270.869 503.925 254.788 510.254 300.219" stroke="#1C2628" stroke-width="2.13" stroke-linecap="round" stroke-linejoin="round"/>
<path d="M166.555 176.673C174.776 184.19 179.669 192.035 182.018 207.069" stroke="#1C2628" stroke-width="2.13" stroke-linecap="round" stroke-linejoin="round"/>
<path d="M167.338 192.819C181.626 217.528 168.317 232.628 160.096 250.212" stroke="#1C2628" stroke-width="2.13" stroke-linecap="round" stroke-linejoin="round"/>
<path d="M16.7579 389.185C27.7187 408.011 51.728 413.502 69.8002 410.56" stroke="#1C2628" stroke-width="2.13" stroke-linecap="round" stroke-linejoin="round"/>
<path d="M18.0627 419.058C39.9843 440.238 68.4301 429.975 83.5664 425.399" stroke="#1C2628" stroke-width="2.13" stroke-linecap="round" stroke-linejoin="round"/>
<path d="M356.085 456.514C356.085 456.514 350.996 461.744 345.842 463.639C340.753 465.6 330.184 468.084 326.139 468.346" stroke="#1C2628" stroke-width="2.13" stroke-linecap="round" stroke-linejoin="round"/>
<path fill-rule="evenodd" clip-rule="evenodd" d="M310.937 350.095C302.456 356.762 296.519 357.416 292.539 356.697C288.363 355.913 287.189 353.821 280.599 351.337C278.707 350.618 272.444 348.395 265.202 348.199C252.284 347.872 246.151 354.213 241.389 350.683C240.279 349.899 239.105 348.461 238.453 345.65C261.614 343.362 295.997 339.767 302.586 338.329C304.87 337.871 306.696 337.021 308.132 335.779C310.154 340.943 310.742 346.303 310.937 350.095Z" fill="#1C2628" stroke="#1C2628" stroke-width="2.13" stroke-linecap="round" stroke-linejoin="round"/>
<path fill-rule="evenodd" clip-rule="evenodd" d="M307.284 360.946L300.825 338.721C300.825 338.721 307.479 337.479 309.11 335.845C310.742 334.21 312.634 328.066 312.634 328.066L320.267 350.748C320.267 350.748 318.179 354.605 314.134 356.893C310.024 359.246 307.284 360.946 307.284 360.946Z" fill="#1C2628"/>
<path fill-rule="evenodd" clip-rule="evenodd" d="M336.382 434.681C338.078 435.596 334.294 442.525 329.466 445.205C325.943 447.167 322.224 446.709 322.811 444.356C323.203 442.787 325.356 440.891 326.465 439.911C329.792 436.969 335.012 433.962 336.382 434.681Z" fill="#1C2628" stroke="#1C2628" stroke-width="2.13" stroke-linecap="round" stroke-linejoin="round"/>
<path fill-rule="evenodd" clip-rule="evenodd" d="M337.426 417.816C336.056 416.836 337.165 412.129 338.992 411.672C339.644 411.541 340.362 411.998 340.688 412.195C341.601 412.783 342.254 413.894 342.188 414.94C341.993 417.228 338.535 418.666 337.426 417.816Z" fill="#1C2628" stroke="#1C2628" stroke-width="2.13" stroke-linecap="round" stroke-linejoin="round"/>
<path d="M126.692 106.794H227.883" stroke="#1C2628" stroke-width="2.13" stroke-linecap="round" stroke-linejoin="round"/>
<path d="M171.775 115.554H243.281" stroke="#1C2628" stroke-width="2.13" stroke-linecap="round" stroke-linejoin="round"/>
<path d="M104.444 154.382H163.489" stroke="#1C2628" stroke-width="2.13" stroke-linecap="round" stroke-linejoin="round"/>
<path d="M126.692 160.266H179.473" stroke="#1C2628" stroke-width="2.13" stroke-linecap="round" stroke-linejoin="round"/>
<path d="M52.3152 394.414L52.6414 394.349L51.9237 414.809C50.6841 414.025 48.7921 413.894 46.9653 414.613C44.2903 415.724 42.7897 418.208 43.6379 420.169C44.4208 422.196 47.2262 422.915 49.9012 421.869C52.5761 420.823 54.0767 418.339 53.2286 416.313C53.2286 416.247 53.1633 416.182 53.0981 416.117L53.8158 394.088L74.302 389.577L73.5843 409.776C72.3447 408.926 70.3874 408.795 68.5606 409.514C65.8856 410.56 64.3851 413.044 65.168 415.071C65.9509 417.097 68.7563 417.816 71.4313 416.77C74.1062 415.724 75.6068 413.24 74.7587 411.214L74.6934 411.149L75.4111 389.316L93.8095 385.263L93.1571 404.089C91.9175 403.304 90.0254 403.108 88.1334 403.893C85.4585 404.939 83.9579 407.423 84.806 409.449C85.5889 411.475 88.3944 412.195 91.0693 411.149C93.7443 410.103 95.2449 407.619 94.3967 405.592C94.3967 405.527 94.3315 405.527 94.3315 405.462L95.0491 385.067L95.4406 385.001L95.7015 378.334L52.3152 388.793V394.414Z" fill="#1C2628" stroke="#1C2628" stroke-width="2.13" stroke-linecap="round" stroke-linejoin="round"/>
<path d="M29.3497 381.406C23.6736 383.694 19.1066 384.021 15.714 382.452C15.1268 382.191 14.6049 381.798 14.1482 381.472C16.236 381.733 18.389 380.883 19.6938 379.053C21.5859 376.373 20.9987 372.647 18.3237 370.751C15.6488 368.855 11.9299 369.444 10.0379 372.124C8.2111 374.673 8.73304 378.072 11.0165 380.099C11.9299 381.472 13.3 382.844 15.1268 383.694C18.389 385.263 22.6297 385.132 27.7187 383.433L5.79712 414.09L6.90624 414.875L30.0674 382.452C30.2631 382.191 30.2631 381.864 30.0674 381.668C29.9369 381.406 29.6107 381.275 29.3497 381.406Z" fill="#1C2628" stroke="#1C2628" stroke-width="2.13" stroke-linecap="round" stroke-linejoin="round"/>
<path d="M453.753 257.468C453.753 257.468 434.572 268.254 449.578 279.236C444.293 268.123 459.234 257.926 459.234 257.926C451.274 249.493 459.625 249.036 464.323 241.714C471.826 230.079 460.278 228.51 460.278 228.51C466.215 236.616 452.775 238.904 449.056 246.029C445.663 252.566 449.643 255.572 453.753 257.468Z" fill="#1C2628" stroke="#1C2628" stroke-width="2.13" stroke-linecap="round" stroke-linejoin="round"/>
<path fill-rule="evenodd" clip-rule="evenodd" d="M221.816 284.792C221.098 285.25 220.968 287.015 221.229 288.649C220.25 287.864 219.206 287.211 218.488 287.145C216.466 287.015 217.053 288.91 218.358 290.675C217.379 290.544 216.531 290.61 215.944 290.871C213.921 291.786 215.879 293.421 218.227 294.336C217.053 294.793 216.009 295.447 215.618 296.101C214.443 297.996 216.923 298.258 219.402 297.735C218.684 298.781 218.162 299.827 218.162 300.611C218.227 302.834 220.446 301.722 222.207 299.892C222.142 301.134 222.338 302.311 222.729 302.964C223.969 304.795 225.274 302.638 225.73 300.154C226.383 301.199 227.166 302.18 227.883 302.441C229.971 303.291 229.775 300.742 228.862 298.454C229.971 298.977 231.145 299.369 231.928 299.238C234.147 298.846 232.646 296.754 230.558 295.382C231.798 295.251 232.972 294.859 233.494 294.336C235.125 292.767 232.711 291.917 230.232 291.852C231.211 291.067 231.928 290.087 232.124 289.368C232.646 287.145 230.167 287.734 228.014 289.041C228.34 287.864 228.536 286.622 228.275 285.903C227.492 283.811 225.73 285.642 224.686 287.864C224.36 286.688 223.773 285.576 223.186 285.119C222.599 284.596 222.142 284.531 221.816 284.792ZM223.643 292.636C223.969 292.702 224.295 292.571 224.491 292.375C224.752 292.636 225.078 292.702 225.339 292.636C225.469 292.963 225.665 293.225 225.861 293.355C225.73 293.682 225.796 294.009 225.926 294.27C225.665 294.532 225.535 294.793 225.535 295.055C225.143 295.12 224.882 295.251 224.752 295.512C224.425 295.382 224.099 295.316 223.838 295.447C223.643 295.12 223.382 294.989 223.121 294.924C223.121 294.532 223.055 294.27 222.794 294.074C222.99 293.813 223.055 293.551 222.99 293.29C223.382 293.094 223.512 292.898 223.643 292.636Z" fill="#FAF6EB" stroke="#1C2628" stroke-width="2.13" stroke-linecap="round" stroke-linejoin="round"/>
<path fill-rule="evenodd" clip-rule="evenodd" d="M265.789 298.912C264.68 299.696 264.484 302.311 264.876 304.991C263.375 303.749 261.744 302.768 260.57 302.703C257.438 302.507 258.352 305.448 260.374 308.194C258.874 307.998 257.503 308.063 256.655 308.455C253.458 309.893 256.525 312.443 260.178 313.815C258.352 314.535 256.721 315.515 256.133 316.561C254.241 319.502 258.221 319.96 262.005 319.11C260.896 320.679 260.048 322.379 260.048 323.621C260.113 327.151 263.636 325.32 266.377 322.509C266.311 324.47 266.507 326.301 267.225 327.347C269.182 330.223 271.139 326.824 271.922 322.967C272.901 324.667 274.14 326.105 275.25 326.562C278.446 327.935 278.251 323.948 276.75 320.352C278.512 321.202 280.338 321.725 281.513 321.529C284.971 320.875 282.557 317.672 279.36 315.45C281.317 315.188 283.079 314.665 283.992 313.815C286.537 311.397 282.818 310.024 278.903 309.893C280.404 308.651 281.578 307.213 281.904 306.037C282.687 302.638 278.838 303.487 275.51 305.579C276.098 303.683 276.293 301.853 275.902 300.676C274.728 297.408 271.922 300.219 270.291 303.749C269.704 301.853 268.921 300.219 267.942 299.434C266.964 298.585 266.246 298.519 265.789 298.912ZM268.53 311.201C269.117 311.266 269.573 311.135 269.9 310.874C270.356 311.266 270.748 311.397 271.204 311.331C271.4 311.854 271.661 312.247 272.053 312.443C271.922 312.966 271.987 313.423 272.183 313.815C271.726 314.208 271.531 314.6 271.531 315.057C270.943 315.123 270.552 315.384 270.291 315.711C269.769 315.45 269.312 315.45 268.921 315.58C268.595 315.123 268.269 314.796 267.812 314.731C267.812 314.142 267.681 313.685 267.355 313.423C267.616 313.031 267.747 312.573 267.681 312.181C268.138 311.92 268.399 311.593 268.53 311.201Z" fill="#FAF6EB" stroke="#1C2628" stroke-width="2.13" stroke-linecap="round" stroke-linejoin="round"/>
<path fill-rule="evenodd" clip-rule="evenodd" d="M234.864 340.747C236.365 339.505 237.539 338.067 237.8 336.89C238.583 333.491 234.734 334.341 231.406 336.433C231.994 334.537 232.189 332.707 231.798 331.53C230.623 328.262 227.818 331.073 226.187 334.603C225.6 332.707 224.817 331.007 223.838 330.288C222.925 329.635 222.272 329.569 221.75 329.896C220.641 330.68 220.446 333.295 220.837 335.975C219.336 334.733 217.705 333.753 216.531 333.687C213.399 333.491 214.313 336.433 216.335 339.178C214.835 338.982 213.465 339.048 212.551 339.44C209.354 340.943 212.421 343.427 216.074 344.8C215.03 345.192 214.052 345.715 213.269 346.238C215.226 347.611 216.792 347.872 216.792 347.872C216.792 347.872 225.665 347.022 237.8 345.781C238.714 345.519 239.431 345.127 239.888 344.669C242.432 342.251 238.779 340.878 234.864 340.747ZM227.557 346.042C226.97 346.107 226.578 346.369 226.317 346.696C225.796 346.434 225.339 346.434 224.947 346.565C224.621 346.042 224.295 345.78 223.838 345.715C223.838 345.127 223.708 344.735 223.382 344.408C223.643 344.016 223.773 343.558 223.708 343.166C224.164 342.904 224.425 342.577 224.556 342.185C225.143 342.251 225.6 342.12 225.926 341.793C226.383 342.185 226.839 342.316 227.231 342.251C227.427 342.774 227.688 343.166 228.079 343.362C227.949 343.885 228.014 344.342 228.209 344.735C227.818 345.192 227.622 345.584 227.557 346.042Z" fill="#FAF6EB" stroke="#1C2628" stroke-width="2.13" stroke-linecap="round" stroke-linejoin="round"/>
<path fill-rule="evenodd" clip-rule="evenodd" d="M288.885 266.946C289.407 266.881 289.864 266.816 290.386 266.685C289.146 266.424 287.907 266.162 286.732 265.966C284.905 265.574 283.209 265.051 281.643 264.332C281.578 264.724 281.643 265.116 281.839 265.443C281.382 265.835 281.187 266.227 281.187 266.685C280.599 266.75 280.208 267.012 279.947 267.339C279.425 267.077 278.968 267.077 278.577 267.208C278.251 266.685 277.924 266.424 277.468 266.358C277.468 265.77 277.337 265.378 277.011 265.051C277.272 264.659 277.402 264.201 277.337 263.809C277.794 263.547 278.055 263.22 278.185 262.828C278.446 262.828 278.642 262.828 278.838 262.828C273.031 259.364 269.573 254.526 269.573 254.526L268.595 254.592C267.486 255.376 268.334 257.664 269.965 259.756C268.464 259.56 267.094 259.625 266.181 260.017C262.984 261.456 266.05 264.005 269.704 265.378C267.877 266.097 266.246 267.077 265.659 268.058C263.767 271.065 267.747 271.457 271.531 270.607C270.422 272.176 269.573 273.875 269.573 275.117C269.639 278.647 273.162 276.817 275.902 274.006C275.837 275.967 276.032 277.798 276.75 278.843C278.707 281.72 280.665 278.321 281.448 274.464C282.426 276.163 283.666 277.601 284.775 278.059C288.037 279.432 287.776 275.444 286.276 271.849C288.037 272.699 289.864 273.222 291.038 273.026C294.431 272.372 292.082 269.169 288.885 266.946Z" fill="#FAF6EB" stroke="#1C2628" stroke-width="2.13" stroke-linecap="round" stroke-linejoin="round"/>
<path d="M261.157 337.348C260.505 338.263 260.7 339.571 261.418 340.486C262.07 341.401 263.114 341.924 264.158 342.381C265.985 343.166 268.008 343.689 269.965 343.819" stroke="#1C2628" stroke-width="2.13" stroke-linecap="round" stroke-linejoin="round"/>
<path d="M294.039 285.184C294.235 288.126 295.997 290.937 298.606 292.309" stroke="#1C2628" stroke-width="2.13" stroke-linecap="round" stroke-linejoin="round"/>
<path d="M297.432 282.896C297.041 285.184 298.867 290.348 300.368 292.048" stroke="#1C2628" stroke-width="2.13" stroke-linecap="round" stroke-linejoin="round"/>
<path d="M210.529 299.761C210.529 301.722 208.898 303.487 207.006 303.749" stroke="#1C2628" stroke-width="2.13" stroke-linecap="round" stroke-linejoin="round"/>
<path d="M231.145 265.051C232.711 266.816 234.864 267.927 237.148 268.188C241.78 268.711 246.151 265.901 250.783 265.966C255.024 266.031 259.004 268.45 263.245 268.058" stroke="#1C2628" stroke-width="2.13" stroke-linecap="round" stroke-linejoin="round"/>
<path d="M234.538 260.214C234.277 261.063 235.19 261.782 236.039 262.109C242.237 264.528 249.218 260.344 255.742 261.456" stroke="#1C2628" stroke-width="2.13" stroke-linecap="round" stroke-linejoin="round"/>
<path fill-rule="evenodd" clip-rule="evenodd" d="M135.891 243.479C129.367 240.93 125.452 232.563 127.866 227.987C130.802 222.3 143.851 221.385 148.744 227.987C151.223 231.321 152.006 237.139 148.744 241.061C145.351 245.179 139.414 244.852 135.891 243.479Z" fill="#FAF6EB"/>
<path fill-rule="evenodd" clip-rule="evenodd" d="M435.159 360.75C432.028 357.22 433.92 347.415 440.444 343.885C448.991 339.309 459.886 348.264 459.56 353.167C459.234 359.508 439.987 366.175 435.159 360.75Z" fill="#1C2628" stroke="#1C2628" stroke-width="2.13" stroke-linecap="round" stroke-linejoin="round"/>
<path fill-rule="evenodd" clip-rule="evenodd" d="M457.277 469.392C454.602 467.888 454.21 462.986 456.102 461.286C458.582 459.064 465.171 461.94 465.367 464.751C465.562 467.365 460.474 471.157 457.277 469.392Z" fill="#1C2628" stroke="#1C2628" stroke-width="2.13" stroke-linecap="round" stroke-linejoin="round"/>
<path d="M81.4134 261.259L57.9913 247.728L81.4134 234.132V261.259Z" fill="#1C2628" stroke="#1C2628" stroke-width="2.13" stroke-linecap="round" stroke-linejoin="round"/>
<path d="M307.545 202.951L351.975 177.261L307.545 151.572V202.951Z" fill="#1C2628" stroke="#1C2628" stroke-width="2.13" stroke-linecap="round" stroke-linejoin="round"/>
<path d="M257.634 233.87C259.976 233.87 261.875 232.407 261.875 230.602C261.875 228.797 259.976 227.333 257.634 227.333C255.292 227.333 253.393 228.797 253.393 230.602C253.393 232.407 255.292 233.87 257.634 233.87Z" fill="#FAF6EB"/>
<path d="M230.884 227.333C233.233 227.333 235.125 228.771 235.125 230.602C235.125 232.432 233.233 233.87 230.884 233.87" fill="#FAF6EB"/>
<path d="M251.436 198.571C251.436 198.571 248.174 203.147 253.393 205.762C258.613 208.377 262.07 207.069 263.832 210.338C268.399 218.835 275.576 214.913 275.576 214.913" stroke="#FAF6EB" stroke-width="2.13" stroke-linecap="round" stroke-linejoin="round"/>
</svg>
