<svg width="645" height="700" viewBox="0 0 645 700" fill="none" xmlns="http://www.w3.org/2000/svg">
<path d="M259.246 511.24H111.632V652.792H259.246V511.24Z" fill="#1C2628" stroke="#1C2628" stroke-width="2.13" stroke-linecap="round" stroke-linejoin="round"/>
<path d="M335.785 200.968C364.309 221.29 400.454 225.03 433.632 243.306C467.08 261.512 497.762 293.901 486.366 320.151C474.97 346.119 421.427 365.665 392.565 391.915C364.04 417.883 359.926 450.272 342.798 475.958C321.826 491.835 292.02 513.216 267.811 515.333C240.365 509.97 216.425 479.98 190.059 459.375C163.961 438.488 135.706 427.268 117.769 406.663C99.5613 386.341 91.9412 356.351 81.354 320.716C70.7668 284.869 57.4147 243.095 68.002 209.859C78.8589 176.905 113.385 152.56 150.34 136.754C187.024 120.948 225.597 113.962 255.807 128.71C285.748 143.669 307.26 180.645 335.785 200.968Z" fill="#F3A13B"/>
<path fill-rule="evenodd" clip-rule="evenodd" d="M231.194 117.278C231.868 116.714 234.161 116.22 234.565 115.514C236.319 112.55 241.983 106.058 239.623 100.766C237.33 95.4738 234.026 97.379 234.026 97.379C234.026 97.379 233.621 86.3004 222.495 94.0625C221.146 94.9798 220.741 93.2863 219.932 94.8387C219.325 95.9677 218.853 97.3085 218.381 98.5081" fill="#1C2628"/>
<path d="M231.194 117.278C231.868 116.714 234.161 116.22 234.565 115.514C236.319 112.55 241.983 106.058 239.623 100.766C237.33 95.4738 234.026 97.379 234.026 97.379C234.026 97.379 233.621 86.3004 222.495 94.0625C221.146 94.9798 220.741 93.2863 219.932 94.8387C219.325 95.9677 218.853 97.3085 218.381 98.5081" stroke="#1C2628" stroke-width="2.13" stroke-linecap="round" stroke-linejoin="round"/>
<path fill-rule="evenodd" clip-rule="evenodd" d="M189.924 119.96C189.519 120.806 187.631 122.218 187.563 122.994C187.091 126.452 184.596 134.849 188.845 138.659C193.026 142.47 195.251 139.294 195.251 139.294C195.251 139.294 199.971 149.173 207.052 137.319C207.861 135.907 208.94 137.248 209.075 135.484C209.21 134.143 209.075 132.802 209.008 131.462" fill="#1C2628"/>
<path d="M189.924 119.96C189.519 120.806 187.631 122.218 187.563 122.994C187.091 126.452 184.596 134.849 188.845 138.659C193.026 142.47 195.251 139.294 195.251 139.294C195.251 139.294 199.971 149.173 207.052 137.319C207.861 135.907 208.94 137.248 209.075 135.484C209.21 134.143 209.075 132.802 209.008 131.462" stroke="#1C2628" stroke-width="2.13" stroke-linecap="round" stroke-linejoin="round"/>
<path fill-rule="evenodd" clip-rule="evenodd" d="M171.716 178.317C178.864 164.345 184.394 153.972 184.394 153.972L196.263 149.103L203.006 134.284L227.417 140.565L224.855 147.48L220.539 163.921C220.539 163.921 224.18 178.105 219.325 177.823C218.786 177.823 217.909 182.056 216.83 188.972C202.197 187.631 184.731 185.514 171.716 178.317Z" fill="#FAF6EB" stroke="#1C2628" stroke-width="2.13" stroke-linecap="round" stroke-linejoin="round"/>
<path fill-rule="evenodd" clip-rule="evenodd" d="M235.982 126.522C237.87 108.528 233.149 111.633 232.205 106.694C230.384 96.8851 227.62 93.5685 210.356 94.6976C207.322 94.9093 203.748 95.0504 200.983 96.4617C188.373 103.095 188.575 113.538 188.575 113.538C188.575 113.538 181.899 137.813 207.659 140.282C233.486 142.681 207.794 139.859 221.618 136.331C235.375 132.802 235.982 126.522 235.982 126.522Z" fill="#1C2628" stroke="#1C2628" stroke-width="2.13" stroke-linecap="round" stroke-linejoin="round"/>
<path fill-rule="evenodd" clip-rule="evenodd" d="M207.119 127.792C206.31 123.558 213.323 112.339 214.537 108.599C216.695 101.895 205.636 104.647 212.379 103.165C219.932 101.542 226.676 101.26 231.126 107.823C232.879 110.363 235.307 123.206 235.981 126.522C238.342 138.377 231.801 146.28 221.348 148.609C214.605 150.091 209.277 149.103 204.759 143.952C202.197 140.988 207.929 132.026 207.119 127.792Z" fill="#FAF6EB" stroke="#1C2628" stroke-width="2.13" stroke-linecap="round" stroke-linejoin="round"/>
<path fill-rule="evenodd" clip-rule="evenodd" d="M228.901 120.595C229.306 122.147 227.822 123.841 225.462 124.405C223.169 124.97 220.944 124.194 220.539 122.641" fill="#FAF6EB"/>
<path d="M228.901 120.595C229.306 122.147 227.822 123.841 225.462 124.405C223.169 124.97 220.944 124.194 220.539 122.641" stroke="#1C2628" stroke-width="2.13" stroke-linecap="round" stroke-linejoin="round"/>
<path fill-rule="evenodd" clip-rule="evenodd" d="M203.411 143.952L206.243 137.177C206.243 137.177 217.437 136.613 220.337 140.423C223.236 144.163 219.258 155.595 219.258 155.595L211.368 156.3" fill="#FAF6EB"/>
<path fill-rule="evenodd" clip-rule="evenodd" d="M211.57 123.7C210.221 121.724 207.12 123.417 206.513 125.181C205.164 128.851 208.468 135.272 214.335 130.968" fill="#FAF6EB"/>
<path d="M211.57 123.7C210.221 121.724 207.12 123.417 206.513 125.181C205.164 128.851 208.468 135.272 214.335 130.968" stroke="#1C2628" stroke-width="2.13" stroke-linecap="round" stroke-linejoin="round"/>
<path d="M211.031 127.651C211.031 127.651 210.356 126.734 210.491 126.875" stroke="#1C2628" stroke-width="2.13" stroke-linecap="round" stroke-linejoin="round"/>
<path fill-rule="evenodd" clip-rule="evenodd" d="M224.922 131.109C226.001 132.944 227.282 134.425 229.643 135.131C229.643 135.131 226.541 139.647 222.562 137.883C219.932 136.754 224.922 131.109 224.922 131.109Z" fill="#1C2628" stroke="#1C2628" stroke-width="2.13" stroke-linecap="round" stroke-linejoin="round"/>
<path fill-rule="evenodd" clip-rule="evenodd" d="M233.014 124.617C233.014 124.617 240.769 128.851 240.837 130.262C241.309 135.837 234.768 132.097 234.093 132.591" fill="#FAF6EB"/>
<path d="M233.014 124.617C233.014 124.617 240.769 128.851 240.837 130.262C241.309 135.837 234.768 132.097 234.093 132.591" stroke="#1C2628" stroke-width="2.13" stroke-linecap="round" stroke-linejoin="round"/>
<path fill-rule="evenodd" clip-rule="evenodd" d="M226.541 98.9315L231.126 107.823C225.125 98.8609 221.618 123.206 204.827 122.006C204.355 122.006 195.184 123.77 195.318 123.135C195.453 122.359 196.802 122.571 197.409 122.006C198.758 120.736 199.23 119.254 199.702 117.49C200.241 115.373 198.69 110.645 200.578 109.093C203.613 106.552 208.333 97.379 211.638 97.9436L226.541 98.9315Z" fill="#1C2628" stroke="#1C2628" stroke-width="2.13" stroke-linecap="round" stroke-linejoin="round"/>
<path fill-rule="evenodd" clip-rule="evenodd" d="M209.345 99.3548C208.603 98.7903 207.524 96.6734 206.782 96.4617C203.546 95.5444 195.993 91.7339 191.812 95.6149C187.631 99.4254 190.261 102.177 190.261 102.177C190.261 102.177 180.281 105.706 190.531 114.738C191.744 115.796 190.328 116.714 191.947 117.137C193.161 117.419 194.509 117.49 195.791 117.631" fill="#1C2628"/>
<path d="M209.345 99.3548C208.603 98.7903 207.524 96.6734 206.782 96.4617C203.546 95.5444 195.993 91.7339 191.812 95.6149C187.631 99.4254 190.261 102.177 190.261 102.177C190.261 102.177 180.281 105.706 190.531 114.738C191.744 115.796 190.328 116.714 191.947 117.137C193.161 117.419 194.509 117.49 195.791 117.631" stroke="#1C2628" stroke-width="2.13" stroke-linecap="round" stroke-linejoin="round"/>
<path fill-rule="evenodd" clip-rule="evenodd" d="M223.911 105.071C223.911 104.153 224.99 102.036 224.787 101.26C223.708 97.9436 222.495 89.2641 217.1 87.7823C211.705 86.3004 211.031 90.1815 211.031 90.1815C211.031 90.1815 202.601 83.4778 201.253 97.4496C201.118 99.0726 199.567 98.4375 200.174 99.9899C200.646 101.26 201.32 102.389 201.927 103.589" fill="#1C2628"/>
<path d="M223.911 105.071C223.911 104.153 224.99 102.036 224.787 101.26C223.708 97.9436 222.495 89.2641 217.1 87.7823C211.705 86.3004 211.031 90.1815 211.031 90.1815C211.031 90.1815 202.601 83.4778 201.253 97.4496C201.118 99.0726 199.567 98.4375 200.174 99.9899C200.646 101.26 201.32 102.389 201.927 103.589" stroke="#1C2628" stroke-width="2.13" stroke-linecap="round" stroke-linejoin="round"/>
<path fill-rule="evenodd" clip-rule="evenodd" d="M199.769 110.01C198.893 109.869 197.072 108.387 196.33 108.528C193.026 109.093 184.664 109.022 182.371 114.385C180.078 119.748 183.652 121.018 183.652 121.018C183.652 121.018 176.032 128.639 188.912 132.238C190.463 132.661 189.587 134.143 191.138 133.79C192.351 133.508 193.565 133.014 194.779 132.591" fill="#1C2628"/>
<path d="M199.769 110.01C198.893 109.869 197.072 108.387 196.33 108.528C193.026 109.093 184.664 109.022 182.371 114.385C180.078 119.748 183.652 121.018 183.652 121.018C183.652 121.018 176.032 128.639 188.912 132.238C190.463 132.661 189.587 134.143 191.138 133.79C192.351 133.508 193.565 133.014 194.779 132.591" stroke="#1C2628" stroke-width="2.13" stroke-linecap="round" stroke-linejoin="round"/>
<path fill-rule="evenodd" clip-rule="evenodd" d="M345.023 230.323L370.918 178.034C370.918 178.034 367.074 177.399 365.456 177.964C363.837 178.528 358.173 189.889 358.173 189.889L355.004 179.516C355.004 179.516 352.846 178.317 352.778 184.032C352.711 189.748 352.643 195.464 352.643 195.464L343.742 207.954C343.742 207.954 341.045 205.06 342.191 202.802C343.337 200.544 345.023 194.264 346.17 192.006C347.316 189.748 345.091 188.548 345.091 188.548L333.357 203.861L329.985 218.397L258.1 231.452L274.959 269.839L345.023 230.323Z" fill="#FAF6EB" stroke="#1C2628" stroke-width="2.13" stroke-linecap="round" stroke-linejoin="round"/>
<path d="M356.487 201.885C358.038 198.286 358.375 193.558 358.308 189.607" stroke="#1C2628" stroke-width="2.13" stroke-linecap="round" stroke-linejoin="round"/>
<path fill-rule="evenodd" clip-rule="evenodd" d="M129.772 267.722C151.149 267.651 200.376 281.905 222.764 282.964L223.439 251.139C223.439 251.139 247.176 276.048 258.505 274.073C278.33 270.615 300.988 263.206 300.988 263.206L295.728 243.024L290.469 222.843L263.023 222.56C263.023 222.56 248.592 175.071 242.32 173.8L224.45 163.992C224.45 163.992 207.052 170.554 184.327 154.042C170.368 143.881 138.741 166.109 139.483 185.585C140.427 206.401 129.3 245.706 129.772 267.722Z" fill="#1C2628" stroke="#1C2628" stroke-width="2.13" stroke-linecap="round" stroke-linejoin="round"/>
<path d="M235.95 464.917C236.051 462.62 224.25 460.188 209.592 459.485C194.935 458.781 182.971 460.073 182.87 462.369C182.769 464.666 194.57 467.098 209.228 467.802C223.885 468.506 235.849 467.214 235.95 464.917Z" fill="#1C2628" stroke="#1C2628" stroke-width="2.13" stroke-linecap="round" stroke-linejoin="round"/>
<path fill-rule="evenodd" clip-rule="evenodd" d="M115.004 444.345C117.094 443.569 125.928 446.179 133.144 458.599C140.359 470.948 145.282 485.554 143.394 486.754C141.506 487.954 133.548 475.252 126.333 462.903C119.117 450.554 109.205 446.532 115.004 444.345Z" fill="#1C2628" stroke="#1C2628" stroke-width="2.13" stroke-linecap="round" stroke-linejoin="round"/>
<path d="M157.892 334.758C162.343 328.125 162.545 322.056 161.601 317.54C160.927 314.506 160.185 295.665 159.376 294.325L148.114 298.347" fill="#FAF6EB"/>
<path d="M157.892 334.758C162.343 328.125 162.545 322.056 161.601 317.54C160.927 314.506 160.185 295.665 159.376 294.325L148.114 298.347" stroke="#1C2628" stroke-width="2.13" stroke-linecap="round" stroke-linejoin="round"/>
<path fill-rule="evenodd" clip-rule="evenodd" d="M226.878 474.899C221.416 451.754 258.909 385.706 258.909 385.706L196.06 413.508L190.665 486.895L217.707 500.514L247.58 494.163C247.58 494.163 228.496 481.885 226.878 474.899Z" fill="#FAF6EB" stroke="#1C2628" stroke-width="2.13" stroke-linecap="round" stroke-linejoin="round"/>
<path fill-rule="evenodd" clip-rule="evenodd" d="M125.861 313.942C115.881 303.216 130.379 274.214 130.379 274.214C130.379 274.214 184.259 283.881 183.989 283.81C183.248 283.669 263.158 287.198 287.501 301.804C298.898 308.649 298.089 334.052 293.233 346.825L234.97 463.962C234.97 463.962 223.236 460.645 219.19 460.222C210.424 459.304 183.922 461.069 183.922 461.069L218.988 360.867L154.723 344.073C143.731 340.968 133.818 322.55 125.861 313.942Z" fill="#47584E" stroke="#1C2628" stroke-width="2.13" stroke-linecap="round" stroke-linejoin="round"/>
<path fill-rule="evenodd" clip-rule="evenodd" d="M219.662 485.413L225.664 476.381C225.664 476.381 236.926 481.603 248.255 486.895C239.286 491.129 228.901 489.859 219.662 485.413Z" fill="#1C2628" stroke="#1C2628" stroke-width="2.13" stroke-linecap="round" stroke-linejoin="round"/>
<path fill-rule="evenodd" clip-rule="evenodd" d="M188.575 479.839C188.575 479.839 196.128 473.558 200.106 482.026C201.522 484.99 212.447 491.411 216.358 490.423L219.73 485.413C228.968 489.859 239.353 491.2 248.322 486.895C255.268 490.141 262.214 493.458 266.597 495.504C279.072 501.431 275.363 512.298 275.363 512.298L222.967 512.651L185.136 510.323L188.575 479.839Z" fill="#F45B49" stroke="#1C2628" stroke-width="2.13" stroke-linecap="round" stroke-linejoin="round"/>
<path d="M145.687 306.744L158.701 301.734" stroke="#1C2628" stroke-width="2.13" stroke-linecap="round" stroke-linejoin="round"/>
<path fill-rule="evenodd" clip-rule="evenodd" d="M131.391 476.804C139.955 462.903 185.54 442.651 185.54 442.651L147.372 418.377L102.191 456.623L106.103 483.508L128.154 505.524C128.086 505.595 127.614 482.873 131.391 476.804Z" fill="#FAF6EB" stroke="#1C2628" stroke-width="2.13" stroke-linecap="round" stroke-linejoin="round"/>
<path fill-rule="evenodd" clip-rule="evenodd" d="M146.766 349.929L192.419 383.165L115.476 443.921L114.936 444.345C114.936 444.345 122.894 448.296 128.895 456.341C134.088 463.256 143.259 486.754 143.259 486.754L193.228 451.825L256.819 407.44L261.202 404.405C268.687 397.419 272.936 383.8 271.25 372.651C270.71 369.194 269.699 366.018 268.013 363.337C252.975 339.274 203.68 306.956 202.129 306.038C202.534 306.179 203.006 303.992 203.478 300.746C204.624 293.266 205.771 280.423 205.771 280.423L132.469 264.899C132.469 264.899 100.64 316.623 120.129 336.099C128.423 344.355 141.236 344.637 146.766 349.929Z" fill="#47584E" stroke="#1C2628" stroke-width="2.13" stroke-linecap="round" stroke-linejoin="round"/>
<path fill-rule="evenodd" clip-rule="evenodd" d="M115.543 443.921C119.859 445.333 123.096 444.98 125.524 444.062C132.739 441.31 131.93 433.548 140.966 428.891C153.374 422.54 164.366 432.278 170.84 425.504C175.897 420.212 171.042 412.238 176.302 407.44C181.494 402.712 231.801 385.635 191.07 362.913C169.558 350.917 164.299 337.228 144.271 333.417C137.257 332.077 131.997 332.571 128.221 333.417C125.254 334.052 122.557 334.97 120.129 336.099C129.57 342.732 141.236 344.708 146.698 349.929L192.351 383.165L115.543 443.921Z" fill="#1C2628" stroke="#1C2628" stroke-width="2.13" stroke-linecap="round" stroke-linejoin="round"/>
<path d="M114.127 316.27C125.861 314.224 135.504 306.25 136.583 302.369C137.325 299.758 144.877 284.798 144.743 283.458L132.941 281.976" stroke="#1C2628" stroke-width="2.13" stroke-linecap="round" stroke-linejoin="round"/>
<path fill-rule="evenodd" clip-rule="evenodd" d="M120.399 481.321L131.997 481.25C131.997 481.25 132.132 491.694 134.223 503.054C126.872 499.526 123.231 489.929 120.399 481.321Z" fill="#1C2628" stroke="#1C2628" stroke-width="2.13" stroke-linecap="round" stroke-linejoin="round"/>
<path fill-rule="evenodd" clip-rule="evenodd" d="M106.305 451.401C106.305 451.401 115.543 454.294 111.16 462.55C109.677 465.444 110.823 478.498 113.858 481.25H120.399C123.163 489.859 126.872 499.526 134.223 503.054C134.897 506.865 135.639 510.817 136.313 514.486C137.19 519.425 140.359 515.756 147.035 519.849C150.002 521.683 148.991 530.645 148.991 530.645L119.522 527.752L102.528 501.996L94.3689 487.812L84.3212 470.242L106.305 451.401Z" fill="#F45B49" stroke="#1C2628" stroke-width="2.13" stroke-linecap="round" stroke-linejoin="round"/>
<path fill-rule="evenodd" clip-rule="evenodd" d="M135.437 264.829L205.838 280.353C205.838 280.353 192.958 288.891 186.147 290.655C179.269 292.49 172.458 291.22 168.142 290.02C163.759 288.75 146.766 283.034 139.078 289.385C125.456 293.831 127.075 279.435 127.075 279.435L135.437 264.829Z" fill="#1C2628" stroke="#1C2628" stroke-width="2.13" stroke-linecap="round" stroke-linejoin="round"/>
<path d="M191.137 433.69C188.036 442.933 185.675 452.883 179.943 460.645" stroke="#1C2628" stroke-width="2.13" stroke-linecap="round" stroke-linejoin="round"/>
<path d="M123.298 285.292L137.055 287.056" stroke="#1C2628" stroke-width="2.13" stroke-linecap="round" stroke-linejoin="round"/>
<path d="M190.126 293.972L202.129 305.968" stroke="#1C2628" stroke-width="2.13" stroke-linecap="round" stroke-linejoin="round"/>
<path d="M206.31 384.647L192.419 383.236" stroke="#1C2628" stroke-width="2.13" stroke-linecap="round" stroke-linejoin="round"/>
<path d="M177.381 337.369L221.82 382.53L130.716 443.992L151.756 476.946" stroke="#1C2628" stroke-width="2.13" stroke-linecap="round" stroke-linejoin="round"/>
<path d="M229.103 215.857L223.371 251.069" stroke="#1C2628" stroke-width="2.13" stroke-linecap="round" stroke-linejoin="round"/>
<path d="M332.211 206.331L139.213 384.506" stroke="#1C2628" stroke-width="2.13" stroke-linecap="round" stroke-linejoin="round"/>
<path d="M370.109 171.331L347.451 192.288" stroke="#1C2628" stroke-width="2.13" stroke-linecap="round" stroke-linejoin="round"/>
<path fill-rule="evenodd" clip-rule="evenodd" d="M187.226 340.685C184.394 355.151 161.736 372.651 161.736 372.651C161.736 372.651 156.746 369.758 158.904 366.23C161.062 362.631 168.142 354.304 168.142 354.304C168.142 354.304 163.961 355.292 163.624 353.81C163.287 352.329 164.433 350.565 164.433 350.565C164.433 350.565 162.748 349.435 160.994 348.306C159.308 347.177 161.803 345.06 161.803 345.06C161.803 345.06 156.678 341.673 154.993 340.474C153.307 339.345 151.284 336.734 151.284 336.734C151.284 336.734 153.172 331.724 154.858 332.853C156.544 333.982 161.399 335.958 161.399 335.958L143.866 316.835L150.879 306.179L165.917 298.558C177.718 315.706 188.575 333.841 187.226 340.685Z" fill="#FAF6EB" stroke="#1C2628" stroke-width="2.13" stroke-linecap="round" stroke-linejoin="round"/>
<path fill-rule="evenodd" clip-rule="evenodd" d="M113.52 283.81L139.483 321.492C139.483 321.492 146.9 312.46 149.868 310.06C150.744 309.355 151.958 308.508 153.374 307.52C159.443 303.427 169.221 297.712 169.221 297.712C163.354 290.232 141.708 260.665 141.708 260.665L179.471 206.895L185.945 202.873L188.845 201.038L141.303 176.835L104.754 244.859C102.933 256.008 106.103 275.696 113.52 283.81Z" fill="#1C2628" stroke="#1C2628" stroke-width="2.13" stroke-linecap="round" stroke-linejoin="round"/>
<path d="M176.369 350.353C175.358 351.694 173.942 352.611 172.391 353.246C170.84 353.881 169.221 354.163 167.603 354.446" stroke="#1C2628" stroke-width="2.13" stroke-linecap="round" stroke-linejoin="round"/>
<path d="M172.66 346.754C170.098 349.083 166.659 350.282 163.22 350.071" stroke="#1C2628" stroke-width="2.13" stroke-linecap="round" stroke-linejoin="round"/>
<path d="M170.165 341.391C168.749 342.52 167.198 343.508 165.58 344.214C164.838 344.567 164.029 344.849 163.22 344.849C162.41 344.919 161.534 344.708 160.927 344.073" stroke="#1C2628" stroke-width="2.13" stroke-linecap="round" stroke-linejoin="round"/>
<path d="M203.748 504.113L185.81 504.183" stroke="#1C2628" stroke-width="2.13" stroke-linecap="round" stroke-linejoin="round"/>
<path d="M274.959 503.901H212.379" stroke="#1C2628" stroke-width="2.13" stroke-linecap="round" stroke-linejoin="round"/>
<path d="M98.6173 481.321L88.8393 466.502" stroke="#1C2628" stroke-width="2.13" stroke-linecap="round" stroke-linejoin="round"/>
<path d="M149.126 524.506L124.58 520.484L102.191 486.684" stroke="#1C2628" stroke-width="2.13" stroke-linecap="round" stroke-linejoin="round"/>
<path fill-rule="evenodd" clip-rule="evenodd" d="M224.72 163.992L242.388 173.73C248.592 175 263.09 222.49 263.09 222.49L290.536 222.772L295.796 242.954C284.265 244.788 275.97 231.099 268.552 232.44C256.886 234.556 253.514 237.379 250.008 232.863C245.894 227.571 256.347 217.127 247.513 208.377C238.949 199.839 231.463 207.742 228.227 190.524C227.282 185.514 233.082 178.599 230.182 174.435C226.001 168.508 215.077 172.319 212.986 167.661C212.784 167.238 210.626 165.403 210.559 164.839C214.672 165.333 222.629 164.415 224.72 163.992Z" fill="#FAF6EB"/>
<path fill-rule="evenodd" clip-rule="evenodd" d="M139.078 289.385C144.27 296.089 149.058 302.157 153.374 307.52C159.443 303.427 169.221 297.712 169.221 297.712C163.354 290.232 141.708 260.665 141.708 260.665L179.471 206.895L185.945 202.873C182.236 199.698 177.381 196.804 171.447 196.381C156.813 195.393 142.113 209.929 140.764 223.125C140.09 229.688 143.192 231.028 141.843 236.956C139.078 249.093 124.647 248.881 122.085 258.619C120.534 264.123 123.636 269.415 139.078 289.385Z" fill="#FAF6EB"/>
<path fill-rule="evenodd" clip-rule="evenodd" d="M230.924 187.843C234.903 196.028 237.06 197.581 238.342 197.298C240.028 196.875 241.376 192.782 239.825 189.819C238.274 186.855 234.161 185.655 230.924 187.843Z" fill="#1C2628" stroke="#1C2628" stroke-width="2.13" stroke-linecap="round" stroke-linejoin="round"/>
<path fill-rule="evenodd" clip-rule="evenodd" d="M244.815 202.097C245.759 201.744 246.029 198.286 244.95 197.792C244.276 197.44 242.86 198.216 242.59 199.415C242.253 200.968 244.074 202.379 244.815 202.097Z" fill="#1C2628" stroke="#1C2628" stroke-width="2.13" stroke-linecap="round" stroke-linejoin="round"/>
<path fill-rule="evenodd" clip-rule="evenodd" d="M150.474 228.206C152.565 227.571 153.239 224.819 153.239 223.266C153.307 220.302 151.149 217.127 149.193 217.198C146.766 217.268 144.136 222.349 145.754 225.595C146.563 227.218 148.586 228.77 150.474 228.206Z" fill="#1C2628" stroke="#1C2628" stroke-width="2.13" stroke-linecap="round" stroke-linejoin="round"/>
<path fill-rule="evenodd" clip-rule="evenodd" d="M202.197 305.968C203.748 306.885 252.975 339.204 268.08 363.266C269.766 365.948 270.845 369.194 271.317 372.581C274.554 370.323 277.117 367.429 278.263 363.76C280.691 356.21 276.847 346.472 271.047 340.968C262.551 332.923 253.312 337.581 245.625 328.69C241.107 323.468 242.657 319.869 239.421 314.577C233.082 304.133 215.616 299.052 203.478 300.675C203.073 303.921 202.601 306.179 202.197 305.968Z" fill="#1C2628" stroke="#1C2628" stroke-width="2.13" stroke-linecap="round" stroke-linejoin="round"/>
<path fill-rule="evenodd" clip-rule="evenodd" d="M193.363 451.825C196.869 453.095 200.511 453.659 203.883 453.306C209.749 452.601 210.626 449.425 222.899 441.946C237.937 432.772 240.972 434.889 246.704 429.173C252.301 423.599 255.807 415.131 256.954 407.44L193.363 451.825Z" fill="#1C2628" stroke="#1C2628" stroke-width="2.13" stroke-linecap="round" stroke-linejoin="round"/>
<path fill-rule="evenodd" clip-rule="evenodd" d="M349.406 186.573L352.913 189.819C355.745 192.429 360.129 192.147 362.624 189.254L373.278 176.764C375.773 173.8 375.504 169.214 372.739 166.603L369.232 163.357C366.4 160.746 362.017 161.028 359.522 163.921L348.867 176.411C346.304 179.375 346.574 183.962 349.406 186.573Z" fill="#1C2628" stroke="#1C2628" stroke-width="2.13" stroke-linecap="round" stroke-linejoin="round"/>
<path d="M373.278 177.187L359.724 165.192" stroke="#FAF6EB" stroke-width="2.13" stroke-linecap="round" stroke-linejoin="round"/>
<path d="M364.309 188.337L350.553 175.494" stroke="#FAF6EB" stroke-width="2.13" stroke-linecap="round" stroke-linejoin="round"/>
<path d="M373.076 170.06L356.217 189.536" stroke="#FAF6EB" stroke-width="2.13" stroke-linecap="round" stroke-linejoin="round"/>
<path d="M366.332 163.569L348.934 183.256" stroke="#FAF6EB" stroke-width="2.13" stroke-linecap="round" stroke-linejoin="round"/>
<path d="M161.264 287.198L169.221 297.712L159.983 303.286" stroke="#1C2628" stroke-width="2.13" stroke-linecap="round" stroke-linejoin="round"/>
<path d="M172.795 226.23L149.261 260.171" stroke="white" stroke-width="2.13" stroke-linecap="round" stroke-linejoin="round"/>
<path d="M183.113 222.772L161.331 254.103" stroke="white" stroke-width="2.13" stroke-linecap="round" stroke-linejoin="round"/>
<path d="M225.057 221.573C223.708 230.746 224.383 251.915 224.18 252.198" stroke="white" stroke-width="2.13" stroke-linecap="round" stroke-linejoin="round"/>
<path d="M117.971 240.907C119.927 242.742 121.275 245.635 120.668 248.317C120.399 249.516 119.792 250.575 119.252 251.633C115.206 260.101 116.218 270.968 121.882 278.306C124.377 281.623 127.749 284.234 130.042 287.692" stroke="white" stroke-width="2.13" stroke-linecap="round" stroke-linejoin="round"/>
<path d="M115.476 275.202C117.229 284.657 125.254 291.22 129.907 299.476" stroke="white" stroke-width="2.13" stroke-linecap="round" stroke-linejoin="round"/>
<path d="M245.625 177.046C253.784 194.335 263.023 222.419 263.023 222.419L290.469 222.702" stroke="#1C2628" stroke-width="2.13" stroke-linecap="round" stroke-linejoin="round"/>
<path d="M229.171 249.869C232.879 253.468 236.791 256.784 241.174 259.395C247.917 263.417 266.192 269.345 266.192 269.345C271.047 264.264 277.184 267.016 281.77 268.71" stroke="white" stroke-width="2.13" stroke-linecap="round" stroke-linejoin="round"/>
<path d="M265.585 264.335C260.663 265.252 256.212 260.877 251.222 260.242" stroke="white" stroke-width="2.13" stroke-linecap="round" stroke-linejoin="round"/>
<path d="M199.634 164.556C197.004 164.839 194.577 163.216 192.149 162.016C187.901 159.97 182.776 158.911 180.078 154.889C174.414 155.313 167.535 156.371 162.478 159.123C160.792 160.04 159.173 161.169 157.892 162.722C156.072 164.909 154.858 167.873 152.363 169.143" stroke="white" stroke-width="2.13" stroke-linecap="round" stroke-linejoin="round"/>
<path d="M264.574 375.474C265.518 380.625 266.394 386.411 263.697 390.857C262.483 392.833 260.663 394.315 258.909 395.726C248.255 404.405 237.398 412.732 226.406 420.847" stroke="#1C2628" stroke-width="2.13" stroke-linecap="round" stroke-linejoin="round"/>
<path d="M240.432 401.159C232.542 406.452 225.057 412.379 217.976 418.871C214.672 421.905 211.368 425.081 207.322 426.986" stroke="#1C2628" stroke-width="2.13" stroke-linecap="round" stroke-linejoin="round"/>
<path d="M219.055 411.25C215.144 416.19 209.682 419.506 204.355 422.611C201.59 424.234 198.825 425.857 196.128 427.48" stroke="#1C2628" stroke-width="2.13" stroke-linecap="round" stroke-linejoin="round"/>
<path d="M242.253 438.982C239.758 443.921 233.756 453.942 230.654 458.458" stroke="#1C2628" stroke-width="2.13" stroke-linecap="round" stroke-linejoin="round"/>
<path d="M233.014 443.075C232.273 446.462 231.059 449.708 229.305 452.671" stroke="#1C2628" stroke-width="2.13" stroke-linecap="round" stroke-linejoin="round"/>
<path fill-rule="evenodd" clip-rule="evenodd" d="M492.368 451.825L493.447 534.667L511.924 631.129C511.924 631.129 516.712 650.605 513.812 655.756C511.182 660.413 493.986 657.45 493.986 657.45C493.986 657.45 452.244 661.331 440.848 657.308C420.887 650.252 447.052 644.607 447.052 644.607L478.274 632.258L448.94 549.909L432.149 452.954L492.368 451.825Z" fill="#F45B49" stroke="#1C2628" stroke-width="2.13" stroke-linecap="round" stroke-linejoin="round"/>
<path fill-rule="evenodd" clip-rule="evenodd" d="M394.048 452.46L385.754 551.815L387.507 620.121C387.507 620.121 393.711 632.893 391.216 638.256C388.99 643.125 371.592 641.643 371.592 641.643C371.592 641.643 335.245 647.994 323.579 644.96C303.146 639.667 323.849 633.034 323.849 633.034L353.992 617.933L341.449 543.982L347.586 443.004L394.048 452.46Z" fill="#F45B49" stroke="#1C2628" stroke-width="2.13" stroke-linecap="round" stroke-linejoin="round"/>
<path fill-rule="evenodd" clip-rule="evenodd" d="M469.103 255.02C469.103 255.02 517.184 283.246 532.154 304.768C542.674 319.939 560.342 353.458 560.342 353.458C560.342 353.458 568.164 362.278 565.602 369.758C562.702 378.226 566.546 377.802 567.153 379.778C573.694 402.288 545.101 386.835 545.101 386.835L540.314 361.079L499.516 316.411L454.807 291.714L469.103 255.02Z" fill="#F45B49" stroke="#1C2628" stroke-width="2.13" stroke-linecap="round" stroke-linejoin="round"/>
<path fill-rule="evenodd" clip-rule="evenodd" d="M383.528 282.752L372.739 350.071L345.293 340.827C345.293 340.827 346.035 299.617 352.643 275.06C359.252 250.504 379.617 248.387 379.617 248.387L383.528 282.752Z" fill="#F45B49" stroke="#1C2628" stroke-width="2.13" stroke-linecap="round" stroke-linejoin="round"/>
<path fill-rule="evenodd" clip-rule="evenodd" d="M444.826 257.843L436.936 248.599L424.528 247.893L416.369 260.383L410.839 248.74L398.229 247.964L389.058 253.327L391.216 331.512L448.603 334.899L444.826 257.843Z" fill="#FAF6EB" stroke="#1C2628" stroke-width="2.13" stroke-linecap="round" stroke-linejoin="round"/>
<path fill-rule="evenodd" clip-rule="evenodd" d="M436.936 213.599C442.534 194.758 435.183 180.222 409.491 183.609C406.523 184.032 402.949 184.385 400.252 186.008C388.114 193.417 391.351 212.681 390.002 214.446C386.765 218.538 390.811 224.254 387.507 231.381C380.696 246.2 385.551 265.181 385.551 265.181L449.614 263.206C449.614 263.206 452.244 256.573 449.075 244.153C447.928 239.778 442.871 239.99 441.927 227.923C440.915 215.927 436.936 213.599 436.936 213.599Z" fill="#1C2628" stroke="#1C2628" stroke-width="2.13" stroke-linecap="round" stroke-linejoin="round"/>
<path fill-rule="evenodd" clip-rule="evenodd" d="M405.377 226.3L405.579 242.883L401.601 247.752C401.601 247.752 399.645 264.194 405.849 268.145C412.727 272.379 428.035 264.052 433.295 262.641C438.015 261.371 430.463 251.069 430.463 251.069L429.923 232.087L430.328 224.677L405.377 226.3Z" fill="#F45B49" stroke="#1C2628" stroke-width="2.13" stroke-linecap="round" stroke-linejoin="round"/>
<path fill-rule="evenodd" clip-rule="evenodd" d="M402.14 216.421C401.061 212.258 401.398 204.002 402.41 200.192C404.163 193.347 406.051 196.381 412.66 194.476C420.078 192.359 423.652 189.254 428.507 195.464C430.395 197.863 435.925 206.895 436.802 210.141C439.836 221.784 433.969 233.569 423.719 236.532C417.111 238.437 411.716 237.802 406.928 232.933C404.231 230.252 403.287 220.585 402.14 216.421Z" fill="#F45B49" stroke="#1C2628" stroke-width="2.13" stroke-linecap="round" stroke-linejoin="round"/>
<path fill-rule="evenodd" clip-rule="evenodd" d="M417.111 215.363C416.571 213.74 417.987 211.835 420.28 211.058C422.505 210.282 424.731 210.988 425.27 212.54C425.742 214.163 424.394 216.069 422.101 216.845C419.808 217.692 417.583 216.986 417.111 215.363Z" fill="#FAFCFF" stroke="#1C2628" stroke-width="2.13" stroke-linecap="round" stroke-linejoin="round"/>
<path fill-rule="evenodd" clip-rule="evenodd" d="M430.463 208.942C429.991 207.319 431.407 205.413 433.632 204.637C435.857 203.861 438.083 204.567 438.622 206.119C439.094 207.742 437.746 209.647 435.453 210.423C433.16 211.27 430.935 210.565 430.463 208.942Z" fill="#FAFCFF" stroke="#1C2628" stroke-width="2.13" stroke-linecap="round" stroke-linejoin="round"/>
<path fill-rule="evenodd" clip-rule="evenodd" d="M407.67 244.859L406.051 227.923C406.051 227.923 419.066 224.889 422.236 228.488C425.338 232.016 422.033 243.659 422.033 243.659L414.211 244.859" fill="#FB564C"/>
<path fill-rule="evenodd" clip-rule="evenodd" d="M394.318 214.728C397.42 220.514 402.612 207.53 402.612 207.53L423.652 202.308L425.135 191.089L430.058 203.649L437.543 203.508C437.543 203.508 431.609 187.913 430.058 186.431C423.922 180.292 413.469 180.645 406.726 186.502C401.129 191.371 387.912 202.873 394.318 214.728Z" fill="#1C2628" stroke="#1C2628" stroke-width="2.13" stroke-linecap="round" stroke-linejoin="round"/>
<path fill-rule="evenodd" clip-rule="evenodd" d="M404.231 217.692C402.747 215.786 399.78 217.692 399.24 219.526C398.094 223.266 400.792 229.546 406.389 225.806" fill="#F45B49"/>
<path d="M404.231 217.692C402.747 215.786 399.78 217.692 399.24 219.526C398.094 223.266 400.792 229.546 406.389 225.806" stroke="#1C2628" stroke-width="2.13" stroke-linecap="round" stroke-linejoin="round"/>
<path fill-rule="evenodd" clip-rule="evenodd" d="M419.673 216.21C418.594 216.915 417.246 216.774 416.706 215.857C416.167 214.94 416.571 213.599 417.65 212.893C418.729 212.188 420.078 212.329 420.617 213.246C421.157 214.163 420.752 215.504 419.673 216.21Z" fill="#1C2628" stroke="#1C2628" stroke-width="2.13" stroke-linecap="round" stroke-linejoin="round"/>
<path fill-rule="evenodd" clip-rule="evenodd" d="M430.328 209.506C429.586 208.377 429.788 206.542 432.621 206.048C433.632 205.837 433.565 206.401 434.239 207.46C434.981 208.589 433.969 209.788 433.16 210.423C432.283 211.058 431.07 210.635 430.328 209.506Z" fill="#1C2628" stroke="#1C2628" stroke-width="2.13" stroke-linecap="round" stroke-linejoin="round"/>
<path d="M402.747 221.29C402.882 221.431 402.949 221.573 403.084 221.714" stroke="#1C2628" stroke-width="2.13" stroke-linecap="round" stroke-linejoin="round"/>
<path fill-rule="evenodd" clip-rule="evenodd" d="M440.173 248.175L444.759 261.442L453.862 287.833L448.333 303.498L446.782 329.113L381.37 355.151L373.953 280.071L395.397 264.194L396.745 243.165L404.298 244.012L406.254 249.234C408.614 255.655 414.481 259.889 421.089 259.889H422.977C428.844 259.889 433.362 254.526 432.621 248.458L432.283 245.635L440.173 248.175Z" fill="#FAF6EB" stroke="#1C2628" stroke-width="2.13" stroke-linecap="round" stroke-linejoin="round"/>
<path fill-rule="evenodd" clip-rule="evenodd" d="M420.482 225.312C422.977 227.712 426.417 225.03 429.519 224.819C429.519 224.819 429.316 230.605 423.719 230.04C420.01 229.617 420.482 225.312 420.482 225.312Z" fill="#1C2628" stroke="#1C2628" stroke-width="2.13" stroke-linecap="round" stroke-linejoin="round"/>
<path fill-rule="evenodd" clip-rule="evenodd" d="M428.979 211.27C432.823 212.046 436.936 210.706 437.408 213.034C437.948 216.069 431.744 218.256 430.935 218.115" fill="#F45B49"/>
<path d="M428.979 211.27C432.823 212.046 436.936 210.706 437.408 213.034C437.948 216.069 431.744 218.256 430.935 218.115" stroke="#1C2628" stroke-width="2.13" stroke-linecap="round" stroke-linejoin="round"/>
<path d="M417.448 191.159C415.56 194.687 415.829 199.062 415.155 203.085" stroke="#FAF6EB" stroke-width="2.13" stroke-linecap="round" stroke-linejoin="round"/>
<path d="M405.849 194.123C389.597 192.782 394.183 225.312 392.564 234.486" stroke="#FAF6EB" stroke-width="2.13" stroke-linecap="round" stroke-linejoin="round"/>
<path fill-rule="evenodd" clip-rule="evenodd" d="M337.875 553.72L347.788 548.921L357.026 558.448L365.456 546.099L377.459 557.319L383.461 548.569L395.666 557.107L392.227 493.881L423.247 417.107C423.247 417.107 424.191 423.81 425.742 434.042C430.058 463.327 438.892 521.26 442.466 532.127C442.601 532.48 443.882 541.23 444.826 547.369C445.366 550.756 445.703 553.296 445.703 553.296L454.672 546.452L464.382 557.883L474.228 548.639L484.478 559.153L491.828 549.768L502.28 558.942L505.045 548.075C505.045 548.075 491.423 419.224 481.173 389.869C470.923 360.514 460.876 358.115 460.876 358.115L372.536 339.698C372.536 339.698 371.323 344.143 369.3 351.411C360.803 382.036 338.752 463.468 338.752 477.651C338.819 488.518 338.414 514.98 338.145 533.538C338.01 545.252 337.875 553.72 337.875 553.72Z" fill="#1C2628" stroke="#1C2628" stroke-width="2.13" stroke-linecap="round" stroke-linejoin="round"/>
<path fill-rule="evenodd" clip-rule="evenodd" d="M402.612 243.236L382.449 231.663L379.415 245.353L368.221 245.635L373.143 261.371L358.51 266.804L365.119 280.776L355.61 291.149L370.513 297.429L369.974 351.835L403.759 352.258L402.612 243.236Z" fill="#1C2628" stroke="#1C2628" stroke-width="2.13" stroke-linecap="round" stroke-linejoin="round"/>
<path fill-rule="evenodd" clip-rule="evenodd" d="M436.802 247.046C436.802 247.046 429.249 342.45 429.586 348.236C429.923 354.022 462.022 342.661 462.022 342.661L465.259 294.677L477.397 290.02L469.305 279.435L483.669 272.308L473.486 266.593L483.938 250.151L459.392 248.034L436.802 247.046Z" fill="#1C2628" stroke="#1C2628" stroke-width="2.13" stroke-linecap="round" stroke-linejoin="round"/>
<path fill-rule="evenodd" clip-rule="evenodd" d="M381.977 377.873C390.541 391.351 405.444 386.27 417.245 393.044C426.619 398.407 432.958 414.073 439.836 422.47C461.28 448.437 493.851 452.601 518.397 405.181C519.341 403.347 520.218 401.442 521.027 399.536C531.345 374.909 530.468 340.615 491.626 330.383C461.685 322.48 450.558 325.585 443.545 326.008C440.713 326.149 438.555 325.867 436.127 324.244C425.338 317.117 417.178 291.361 402.41 293.548C400.791 293.76 392.227 296.23 393.913 308.226C395.599 320.151 408.479 333.347 409.086 341.391C409.356 345.06 412.39 355.786 406.119 353.458C394.655 349.083 372.402 362.843 381.977 377.873Z" fill="#F3A140" stroke="#1C2628" stroke-width="2.13" stroke-linecap="round" stroke-linejoin="round"/>
<path fill-rule="evenodd" clip-rule="evenodd" d="M409.086 324.808C411.986 309.073 433.632 335.252 440.578 339.415C455.076 347.954 488.659 337.933 485.759 363.266C484.815 371.452 477.195 377.732 472.272 383.659C468.698 387.964 469.507 410.615 458.178 413.579C446.175 416.683 439.566 397.984 429.316 390.222C421.629 384.435 400.252 383.659 396.678 373.639C392.227 361.22 405.445 362.772 409.625 354.446C413.941 345.837 407.4 333.77 409.086 324.808Z" fill="#FAF6EB" stroke="#1C2628" stroke-width="2.13" stroke-linecap="round" stroke-linejoin="round"/>
<path fill-rule="evenodd" clip-rule="evenodd" d="M301.528 279.294C291.345 275.766 286.288 268.004 275.566 267.722C264.843 267.51 260.19 270.756 275.026 284.446C289.862 298.206 282.983 295.877 293.908 303.851C304.832 311.825 310.564 308.649 310.564 308.649L314.61 310.766L321.151 294.183C319.128 291.855 310.429 282.329 301.528 279.294Z" fill="#1C2628" stroke="#1C2628" stroke-width="2.13" stroke-linecap="round" stroke-linejoin="round"/>
<path fill-rule="evenodd" clip-rule="evenodd" d="M475.239 373.71L321.556 294.677C321.556 294.677 321.421 294.466 321.151 294.183L314.61 310.766L467.417 389.869L475.239 373.71Z" fill="#FAF6EB" stroke="#1C2628" stroke-width="2.13" stroke-linecap="round" stroke-linejoin="round"/>
<path fill-rule="evenodd" clip-rule="evenodd" d="M488.456 368.982L474.97 360.867L457.909 397.208L471.193 403.841L488.456 368.982Z" fill="#1C2628" stroke="#1C2628" stroke-width="2.13" stroke-linecap="round" stroke-linejoin="round"/>
<path d="M471.126 379.073L317.645 299.123" stroke="#1C2628" stroke-width="2.13" stroke-linecap="round" stroke-linejoin="round"/>
<path d="M468.159 383.659L314.408 304.556" stroke="#1C2628" stroke-width="2.13" stroke-linecap="round" stroke-linejoin="round"/>
<path fill-rule="evenodd" clip-rule="evenodd" d="M356.757 370.817C375.706 380.06 372.536 339.909 372.536 339.909L346.709 327.913L324.051 317.399L325.332 301.169C325.332 301.169 325.602 297.853 324.118 296.512C322.635 295.171 319.398 295.877 319.398 295.877C319.398 295.877 318.993 292.49 317.914 291.714C314.61 289.173 312.115 291.079 312.115 291.079L308.541 284.375C308.541 284.375 311.508 279.788 312.25 276.26C312.992 273.085 311.576 270.827 311.104 271.038C309.485 271.673 302.607 283.317 302.607 283.317L303.416 310.06C303.483 309.99 337.808 361.573 356.757 370.817Z" fill="#F45B49" stroke="#1C2628" stroke-width="2.13" stroke-linecap="round" stroke-linejoin="round"/>
<path d="M319.465 295.595C318.656 300.181 316.094 308.72 317.847 313.024" stroke="#1C2628" stroke-width="2.13" stroke-linecap="round" stroke-linejoin="round"/>
<path d="M313.868 290.867C309.957 291.925 307.934 308.296 310.564 310.907" stroke="#1C2628" stroke-width="2.13" stroke-linecap="round" stroke-linejoin="round"/>
<path d="M564.523 388.317C563.376 385.917 561.825 384.224 560.611 381.825" stroke="#1C2628" stroke-width="2.13" stroke-linecap="round" stroke-linejoin="round"/>
<path d="M557.509 389.022C555.082 384.506 556.026 375.474 554.34 370.605" stroke="#1C2628" stroke-width="2.13" stroke-linecap="round" stroke-linejoin="round"/>
<path d="M551.508 388.74C549.687 387.823 548.271 372.228 547.664 369.405" stroke="#1C2628" stroke-width="2.13" stroke-linecap="round" stroke-linejoin="round"/>
<path fill-rule="evenodd" clip-rule="evenodd" d="M438.015 193.911C438.015 193.911 440.848 176.764 422.303 178.599C403.759 180.433 389.934 187.49 389.597 192.853C389.26 198.216 390.609 202.45 390.609 202.45L438.015 193.911Z" fill="#F45B49" stroke="#1C2628" stroke-width="2.13" stroke-linecap="round" stroke-linejoin="round"/>
<path fill-rule="evenodd" clip-rule="evenodd" d="M438.825 196.028C438.825 196.028 449.682 186.29 445.568 182.762C438.757 176.764 401.736 192.853 401.736 192.853L389.8 202.167L438.825 196.028Z" fill="#FAF6EB" stroke="#1C2628" stroke-width="2.13" stroke-linecap="round" stroke-linejoin="round"/>
<path d="M481.578 447.944C481.578 447.944 492.637 516.25 496.414 550.121" stroke="#FAF6EB" stroke-width="2.13" stroke-linecap="round" stroke-linejoin="round"/>
<path d="M408.074 411.179C394.79 433.76 376.785 495.222 376.785 495.222C376.785 495.222 377.459 525.282 379.01 539.748" stroke="#FAF6EB" stroke-width="2.13" stroke-linecap="round" stroke-linejoin="round"/>
<path fill-rule="evenodd" clip-rule="evenodd" d="M515.026 631.552L517.79 652.298L471.193 652.934L458.516 637.903L472.609 629.153L473.284 617.369L486.096 631.552H515.026Z" fill="#1C2628" stroke="#1C2628" stroke-width="2.13" stroke-linecap="round" stroke-linejoin="round"/>
<path fill-rule="evenodd" clip-rule="evenodd" d="M391.216 618.427L391.081 635.998L347.99 640.302L334.301 626.331L347.721 616.452L351.227 604.456L361.342 617.863L391.216 618.427Z" fill="#1C2628" stroke="#1C2628" stroke-width="2.13" stroke-linecap="round" stroke-linejoin="round"/>
<path fill-rule="evenodd" clip-rule="evenodd" d="M517.79 648.347L518.33 659.99L431.002 660.907C431.002 660.907 425.81 650.675 434.104 645.948C442.399 641.22 461.955 635.927 461.955 635.927L469.238 648.347H517.79Z" fill="#FAF6EB" stroke="#1C2628" stroke-width="2.13" stroke-linecap="round" stroke-linejoin="round"/>
<path fill-rule="evenodd" clip-rule="evenodd" d="M391.553 632.046L392.227 645.03L306.653 645.665C306.653 645.665 302.674 641.643 310.564 636.28C318.521 630.917 337.605 624.073 337.605 624.073L345.765 635.857L391.553 632.046Z" fill="#FAF6EB" stroke="#1C2628" stroke-width="2.13" stroke-linecap="round" stroke-linejoin="round"/>
<path fill-rule="evenodd" clip-rule="evenodd" d="M497.358 646.159C497.897 644.607 497.088 642.843 495.604 642.349C494.121 641.855 492.502 642.702 491.963 644.254C491.423 645.877 492.233 647.571 493.716 648.064C495.2 648.629 496.818 647.782 497.358 646.159Z" fill="#FAF6EB" stroke="#1C2628" stroke-width="2.13" stroke-linecap="round" stroke-linejoin="round"/>
<path fill-rule="evenodd" clip-rule="evenodd" d="M373.683 631.482C374.087 629.859 373.211 628.236 371.66 627.813C370.109 627.389 368.558 628.377 368.153 630C367.749 631.623 368.625 633.317 370.176 633.669C371.727 634.093 373.278 633.105 373.683 631.482Z" fill="#FAF6EB" stroke="#1C2628" stroke-width="2.13" stroke-linecap="round" stroke-linejoin="round"/>
<path fill-rule="evenodd" clip-rule="evenodd" d="M484.613 646.089C485.152 644.466 484.343 642.772 482.859 642.278C481.376 641.784 479.757 642.631 479.218 644.183C478.678 645.806 479.488 647.5 480.971 647.994C482.455 648.558 484.073 647.641 484.613 646.089Z" fill="#FAF6EB" stroke="#1C2628" stroke-width="2.13" stroke-linecap="round" stroke-linejoin="round"/>
<path fill-rule="evenodd" clip-rule="evenodd" d="M360.938 632.399C361.342 630.776 360.466 629.153 358.915 628.73C357.431 628.306 355.813 629.294 355.475 630.917C355.071 632.54 355.947 634.163 357.498 634.587C358.982 635.01 360.533 634.022 360.938 632.399Z" fill="#FAF6EB" stroke="#1C2628" stroke-width="2.13" stroke-linecap="round" stroke-linejoin="round"/>
<path d="M476.655 633.034C476.79 633.246 476.318 632.611 476.183 632.399C475.239 630.847 474.295 629.436 473.216 627.954" stroke="#FAF6EB" stroke-width="2.13" stroke-linecap="round" stroke-linejoin="round"/>
<path d="M352.036 620.05C352.171 620.262 351.632 619.698 351.497 619.486C350.485 618.004 349.406 616.663 348.26 615.252" stroke="#FAF6EB" stroke-width="2.13" stroke-linecap="round" stroke-linejoin="round"/>
<path d="M473.284 637.268C473.284 637.268 469.912 632.823 468.496 630.423" stroke="#FAF6EB" stroke-width="2.13" stroke-linecap="round" stroke-linejoin="round"/>
<path d="M349.002 624.496C349.002 624.496 345.36 620.333 343.742 618.075" stroke="#FAF6EB" stroke-width="2.13" stroke-linecap="round" stroke-linejoin="round"/>
<path d="M468.496 639.314C467.349 637.409 466.068 635.575 464.787 633.81" stroke="#FAF6EB" stroke-width="2.13" stroke-linecap="round" stroke-linejoin="round"/>
<path d="M344.416 626.895C343.135 625.061 341.719 623.367 340.303 621.673" stroke="#FAF6EB" stroke-width="2.13" stroke-linecap="round" stroke-linejoin="round"/>
<path d="M470.789 648.488L443.14 654.063" stroke="#1C2628" stroke-width="2.13" stroke-linecap="round" stroke-linejoin="round"/>
<path d="M347.316 635.927L331.604 640.02" stroke="#1C2628" stroke-width="2.13" stroke-linecap="round" stroke-linejoin="round"/>
<path fill-rule="evenodd" clip-rule="evenodd" d="M338.752 477.863C338.752 467.137 351.294 418.165 361.14 381.613C365.725 383.165 369.772 385.917 372.469 390.645C373.683 392.762 372.874 395.514 370.783 396.643C366.804 398.831 362.758 399.113 360.466 403.77C356.217 412.591 366.535 420.565 366.535 432.137C365.388 433.619 364.242 435.101 363.028 436.442C364.242 435.101 365.456 433.619 366.535 432.137C366.535 433.478 366.4 434.889 366.063 436.371C363.77 446.603 355.745 445.121 350.89 459.375C348.597 466.008 350.148 466.925 346.911 479.415C343.944 490.776 342.461 491.058 342.123 496.562C341.449 507.923 347.788 511.522 347.316 518.72C346.979 523.8 343.27 529.234 338.212 533.75C338.414 515.192 338.819 488.73 338.752 477.863Z" fill="#FAF6EB"/>
<path fill-rule="evenodd" clip-rule="evenodd" d="M425.742 434.183C430.058 463.468 438.892 521.401 442.466 532.268C442.601 532.621 443.882 541.371 444.826 547.51C454.267 542.218 464.652 536.996 464.787 533.75C464.989 527.188 452.649 522.742 447.591 510.958C443.95 502.49 447.456 503.76 443.612 487.954C441.05 477.44 435.318 478.992 434.037 472.288C430.463 453.306 439.432 441.31 433.969 435.948C432.756 434.677 430.395 433.548 425.742 434.183Z" fill="#FAF6EB"/>
<path fill-rule="evenodd" clip-rule="evenodd" d="M443.612 326.008C444.624 329.607 446.31 332.782 448.67 334.899C456.02 341.673 467.012 332.712 483.601 339.768C485.354 340.544 495.807 345.131 502.753 356.069C511.586 369.899 505.517 379.284 512.328 390.363C514.486 393.891 517.521 396.925 521.095 399.466C531.412 374.839 530.536 340.544 491.693 330.313C461.752 322.48 450.626 325.585 443.612 326.008Z" fill="#1C2628" stroke="#1C2628" stroke-width="2.13" stroke-linecap="round" stroke-linejoin="round"/>
<path d="M361.14 381.613L338.752 472.923L338.415 510.111" stroke="#1C2628" stroke-width="2.13" stroke-linecap="round" stroke-linejoin="round"/>
<path d="M429.991 463.821L444.826 547.581" stroke="#1C2628" stroke-width="2.13" stroke-linecap="round" stroke-linejoin="round"/>
<path d="M448.67 247.893L443.612 247.329L440.848 299.123" stroke="#FAF6EB" stroke-width="2.13" stroke-linecap="round" stroke-linejoin="round"/>
<path d="M398.229 247.964V290.867" stroke="#FAF6EB" stroke-width="2.13" stroke-linecap="round" stroke-linejoin="round"/>
<path d="M386.023 482.873C386.226 482.661 380.696 496.069 380.763 498.397C380.898 505.806 381.64 526.129 382.854 533.397" stroke="white" stroke-width="2.13" stroke-linecap="round" stroke-linejoin="round"/>
<path d="M385.079 500.373C386.765 512.439 387.979 524.577 388.721 536.714" stroke="white" stroke-width="2.13" stroke-linecap="round" stroke-linejoin="round"/>
<path d="M476.183 444.839C477.06 456.905 478.881 468.901 481.578 480.615" stroke="white" stroke-width="2.13" stroke-linecap="round" stroke-linejoin="round"/>
<path d="M471.665 460.222C472.542 468.972 474.093 477.722 476.251 486.26C479.757 500.161 485.017 514.274 483.197 528.528" stroke="white" stroke-width="2.13" stroke-linecap="round" stroke-linejoin="round"/>
<path d="M483.871 490.635C484.478 495.786 485.152 500.867 485.759 506.018" stroke="white" stroke-width="2.13" stroke-linecap="round" stroke-linejoin="round"/>
<path d="M439.971 474.335C440.308 475.817 441.455 476.946 442.466 478.004C446.512 482.52 448.805 488.8 448.603 495.01" stroke="white" stroke-width="2.13" stroke-linecap="round" stroke-linejoin="round"/>
<path d="M441.657 452.036C441.522 458.246 442.871 464.456 445.501 469.96" stroke="white" stroke-width="2.13" stroke-linecap="round" stroke-linejoin="round"/>
<path d="M374.492 371.099C375.234 374.415 376.043 377.802 377.999 380.554C379.617 382.812 381.91 384.365 384.135 385.917C386.091 387.329 388.114 388.669 390.272 389.657C397.083 392.762 405.512 392.056 411.311 396.996" stroke="white" stroke-width="2.13" stroke-linecap="round" stroke-linejoin="round"/>
<path d="M416.369 408.357C413.874 405.675 411.379 402.923 408.344 400.948C405.31 398.972 401.668 397.702 398.162 398.266" stroke="white" stroke-width="2.13" stroke-linecap="round" stroke-linejoin="round"/>
<path d="M382.314 293.478C378.875 295.736 374.694 296.653 370.648 296.159" stroke="white" stroke-width="2.13" stroke-linecap="round" stroke-linejoin="round"/>
<path d="M373.48 282.752C371.795 282.611 370.109 282.258 368.49 281.623" stroke="white" stroke-width="2.13" stroke-linecap="round" stroke-linejoin="round"/>
<path d="M463.573 294.677C459.19 295.524 454.807 295.877 450.356 295.877" stroke="white" stroke-width="2.13" stroke-linecap="round" stroke-linejoin="round"/>
<path d="M461.415 288.75C457.167 290.302 452.649 291.079 448.198 291.008" stroke="white" stroke-width="2.13" stroke-linecap="round" stroke-linejoin="round"/>
<path d="M449.412 265.817C447.793 273.649 446.984 281.623 446.984 289.597C446.984 293.478 447.052 297.782 444.557 300.605" stroke="white" stroke-width="2.13" stroke-linecap="round" stroke-linejoin="round"/>
<path d="M446.445 303.216C447.861 302.722 448.805 300.958 448.535 299.405" stroke="white" stroke-width="2.13" stroke-linecap="round" stroke-linejoin="round"/>
<path d="M462.696 324.738H445.298" stroke="white" stroke-width="2.13" stroke-linecap="round" stroke-linejoin="round"/>
<path d="M379.347 244.435C382.854 247.54 386.158 250.927 389.328 254.385" stroke="white" stroke-width="2.13" stroke-linecap="round" stroke-linejoin="round"/>
<path d="M437.341 230.675C437.881 235.333 439.364 239.778 441.724 243.8" stroke="white" stroke-width="2.13" stroke-linecap="round" stroke-linejoin="round"/>
<path d="M432.958 230.04C433.16 232.792 433.362 235.615 433.565 238.367" stroke="white" stroke-width="2.13" stroke-linecap="round" stroke-linejoin="round"/>
<path d="M398.364 216.633C398.094 225.03 398.903 231.24 398.634 239.637C398.634 240.554 398.566 241.472 398.162 242.248" stroke="white" stroke-width="2.13" stroke-linecap="round" stroke-linejoin="round"/>
<path d="M230.384 511.24V652.863" stroke="#FAF6EB" stroke-width="2.13" stroke-linecap="round" stroke-linejoin="round"/>
<path d="M238.072 529.304H251.087" stroke="#FAF6EB" stroke-width="2.13" stroke-linecap="round" stroke-linejoin="round"/>
<path d="M238.072 536.714H251.087" stroke="#FAF6EB" stroke-width="2.13" stroke-linecap="round" stroke-linejoin="round"/>
<path d="M238.072 544.123H251.087" stroke="#FAF6EB" stroke-width="2.13" stroke-linecap="round" stroke-linejoin="round"/>
<path d="M253.649 524.153H235.307V549.486H253.649V524.153Z" stroke="#FAF6EB" stroke-width="2.13" stroke-linecap="round" stroke-linejoin="round"/>
<path d="M153.104 524.153H219.797V549.415H127.007V537.419" stroke="#FAF6EB" stroke-width="2.13" stroke-linecap="round" stroke-linejoin="round"/>
<path d="M138.201 541.018C140.101 541.018 141.641 539.407 141.641 537.419C141.641 535.432 140.101 533.821 138.201 533.821C136.302 533.821 134.762 535.432 134.762 537.419C134.762 539.407 136.302 541.018 138.201 541.018Z" stroke="#FAF6EB" stroke-width="2.13" stroke-linecap="round" stroke-linejoin="round"/>
<path d="M153.104 541.018C155.004 541.018 156.544 539.407 156.544 537.419C156.544 535.432 155.004 533.821 153.104 533.821C151.205 533.821 149.665 535.432 149.665 537.419C149.665 539.407 151.205 541.018 153.104 541.018Z" stroke="#FAF6EB" stroke-width="2.13" stroke-linecap="round" stroke-linejoin="round"/>
<path d="M168.007 541.018C169.907 541.018 171.447 539.407 171.447 537.419C171.447 535.432 169.907 533.821 168.007 533.821C166.108 533.821 164.568 535.432 164.568 537.419C164.568 539.407 166.108 541.018 168.007 541.018Z" stroke="#FAF6EB" stroke-width="2.13" stroke-linecap="round" stroke-linejoin="round"/>
<path d="M211.166 533.75H178.932V540.948H211.166V533.75Z" stroke="#FAF6EB" stroke-width="2.13" stroke-linecap="round" stroke-linejoin="round"/>
<path d="M170.705 626.119C186.906 626.119 200.039 612.376 200.039 595.423C200.039 578.471 186.906 564.728 170.705 564.728C154.504 564.728 141.371 578.471 141.371 595.423C141.371 612.376 154.504 626.119 170.705 626.119Z" stroke="#FAF6EB" stroke-width="2.13" stroke-linecap="round" stroke-linejoin="round"/>
<path d="M170.705 620.897C184.15 620.897 195.049 609.492 195.049 595.423C195.049 581.355 184.15 569.95 170.705 569.95C157.26 569.95 146.361 581.355 146.361 595.423C146.361 609.492 157.26 620.897 170.705 620.897Z" stroke="#FAF6EB" stroke-width="2.13" stroke-linecap="round" stroke-linejoin="round"/>
<path d="M170.705 608.054C177.371 608.054 182.776 602.399 182.776 595.423C182.776 588.447 177.371 582.792 170.705 582.792C164.038 582.792 158.634 588.447 158.634 595.423C158.634 602.399 164.038 608.054 170.705 608.054Z" stroke="#FAF6EB" stroke-width="2.13" stroke-linecap="round" stroke-linejoin="round"/>
<path d="M109.609 639.808H259.246" stroke="#FAF6EB" stroke-width="2.13" stroke-linecap="round" stroke-linejoin="round"/>
<path d="M259.246 573.831H229.98V604.456H259.246V573.831Z" fill="#FAF6EB"/>
<path d="M258.572 573.831V599.022" stroke="#1C2628" stroke-width="2.13" stroke-linecap="round" stroke-linejoin="round"/>
<path d="M294.245 655.897H390.946" stroke="#1C2628" stroke-width="2.13" stroke-linecap="round" stroke-linejoin="round"/>
<path d="M368.153 650.887H406.928" stroke="#1C2628" stroke-width="2.13" stroke-linecap="round" stroke-linejoin="round"/>
<path d="M407.737 672.057H504.708" stroke="#1C2628" stroke-width="2.13" stroke-linecap="round" stroke-linejoin="round"/>
<path d="M485.624 668.599H573.559" stroke="#1C2628" stroke-width="2.13" stroke-linecap="round" stroke-linejoin="round"/>
<path d="M392.295 643.548H304.63V647.077H392.295V643.548Z" fill="#1C2628" stroke="#1C2628" stroke-width="2.13" stroke-linecap="round" stroke-linejoin="round"/>
<path d="M518.397 657.661H430.058V661.189H518.397V657.661Z" fill="#1C2628" stroke="#1C2628" stroke-width="2.13" stroke-linecap="round" stroke-linejoin="round"/>
</svg>
