<svg width="332" height="175" viewBox="0 0 332 175" fill="none" xmlns="http://www.w3.org/2000/svg">
<path d="M92.25 20.2656V86.5H80.8125V37.0469L64.4062 80.7344H52.875L36.4688 37.0469V86.5H25.0312V20.2656H41.0625L58.6406 67.375L76.2188 20.2656H92.25ZM133.125 87.4375C124.531 87.4375 118.156 85.0938 114 80.4062C109.875 75.6875 107.812 69.1094 107.812 60.6719V20.2656H119.672V59.3125C119.672 63.0938 120.062 66.1875 120.844 68.5938C121.656 70.9688 123.031 72.7969 124.969 74.0781C126.938 75.3281 129.656 75.9531 133.125 75.9531C136.594 75.9531 139.312 75.3281 141.281 74.0781C143.25 72.8281 144.625 71 145.406 68.5938C146.188 66.1875 146.578 63.0938 146.578 59.3125V20.2656H158.484V60.2031C158.484 68.8594 156.406 75.5625 152.25 80.3125C148.125 85.0625 141.75 87.4375 133.125 87.4375ZM192.938 87.25C188.906 87.25 185.078 86.5156 181.453 85.0469C177.859 83.5781 174.812 81.3906 172.312 78.4844C169.844 75.5469 168.266 71.9844 167.578 67.7969L179.391 64.7969C179.797 68.7344 181.25 71.7031 183.75 73.7031C186.281 75.7031 189.406 76.7031 193.125 76.7031C195.406 76.7031 197.375 76.3438 199.031 75.625C200.688 74.875 201.938 73.8594 202.781 72.5781C203.625 71.2969 204.047 69.8594 204.047 68.2656C204.047 66.3594 203.453 64.7344 202.266 63.3906C201.109 62.0469 199.656 60.9375 197.906 60.0625C196.156 59.1875 193.75 58.1406 190.688 56.9219C186.688 55.3281 183.453 53.8594 180.984 52.5156C178.516 51.1406 176.391 49.2344 174.609 46.7969C172.859 44.3594 171.984 41.2812 171.984 37.5625C171.984 33.7812 172.906 30.5156 174.75 27.7656C176.625 24.9844 179.125 22.875 182.25 21.4375C185.406 20 188.875 19.2812 192.656 19.2812C196.906 19.2812 200.781 20.25 204.281 22.1875C207.781 24.0938 210.625 27 212.812 30.9062L202.922 36.9531C201.766 34.7031 200.25 32.9688 198.375 31.75C196.5 30.5 194.453 29.875 192.234 29.875C190.672 29.875 189.25 30.1719 187.969 30.7656C186.719 31.3594 185.719 32.2031 184.969 33.2969C184.25 34.3594 183.891 35.5781 183.891 36.9531C183.891 38.6406 184.438 40.0781 185.531 41.2656C186.625 42.4531 188 43.4531 189.656 44.2656C191.344 45.0781 193.641 46.0469 196.547 47.1719C200.672 48.7656 204.016 50.2656 206.578 51.6719C209.141 53.0781 211.344 55.0469 213.188 57.5781C215.031 60.1094 215.953 63.3125 215.953 67.1875C215.953 71.25 214.922 74.7969 212.859 77.8281C210.828 80.8594 208.062 83.1875 204.562 84.8125C201.062 86.4375 197.188 87.25 192.938 87.25ZM227.344 20.2656H239.25V86.5H227.344V20.2656ZM283.688 87.4375C276.688 87.4375 270.781 85.9062 265.969 82.8438C261.156 79.7812 257.562 75.6719 255.188 70.5156C252.812 65.3281 251.625 59.6094 251.625 53.3594C251.625 47.1094 252.797 41.4062 255.141 36.25C257.516 31.0625 261.109 26.9219 265.922 23.8281C270.734 20.7344 276.625 19.1875 283.594 19.1875C290.188 19.1875 296 20.8281 301.031 24.1094C306.062 27.3594 309.906 32.0625 312.562 38.2188L301.453 42.625C300.266 38.4375 298.109 35.375 294.984 33.4375C291.891 31.5 288.062 30.5312 283.5 30.5312C279 30.5312 275.25 31.5156 272.25 33.4844C269.25 35.4531 267.031 38.125 265.594 41.5C264.156 44.8438 263.438 48.6406 263.438 52.8906C263.438 57.4219 264.156 61.4375 265.594 64.9375C267.031 68.4062 269.266 71.1406 272.297 73.1406C275.328 75.1406 279.125 76.1406 283.688 76.1406C288.062 76.1406 291.703 75.1875 294.609 73.2812C297.547 71.3438 299.891 68.2031 301.641 63.8594L312.656 68.3594C310.062 74.5156 306.234 79.2344 301.172 82.5156C296.141 85.7969 290.312 87.4375 283.688 87.4375Z" fill="white"/>
<path d="M21.7031 89.9062H0.9375V79.2656H54.3281V89.9062H33.6094V145.5H21.7031V89.9062ZM76.125 79.2656H85.0312L111.422 145.5H98.5781L93.2812 131.109H67.9219L62.5781 145.5H49.5938L76.125 79.2656ZM89.5312 120.938L80.625 96.75L71.6719 120.938H89.5312ZM139.125 146.25C135.094 146.25 131.266 145.516 127.641 144.047C124.047 142.578 121 140.391 118.5 137.484C116.031 134.547 114.453 130.984 113.766 126.797L125.578 123.797C125.984 127.734 127.438 130.703 129.938 132.703C132.469 134.703 135.594 135.703 139.312 135.703C141.594 135.703 143.562 135.344 145.219 134.625C146.875 133.875 148.125 132.859 148.969 131.578C149.812 130.297 150.234 128.859 150.234 127.266C150.234 125.359 149.641 123.734 148.453 122.391C147.297 121.047 145.844 119.938 144.094 119.062C142.344 118.188 139.938 117.141 136.875 115.922C132.875 114.328 129.641 112.859 127.172 111.516C124.703 110.141 122.578 108.234 120.797 105.797C119.047 103.359 118.172 100.281 118.172 96.5625C118.172 92.7812 119.094 89.5156 120.938 86.7656C122.812 83.9844 125.312 81.875 128.438 80.4375C131.594 79 135.062 78.2812 138.844 78.2812C143.094 78.2812 146.969 79.25 150.469 81.1875C153.969 83.0938 156.812 86 159 89.9062L149.109 95.9531C147.953 93.7031 146.438 91.9688 144.562 90.75C142.688 89.5 140.641 88.875 138.422 88.875C136.859 88.875 135.438 89.1719 134.156 89.7656C132.906 90.3594 131.906 91.2031 131.156 92.2969C130.438 93.3594 130.078 94.5781 130.078 95.9531C130.078 97.6406 130.625 99.0781 131.719 100.266C132.812 101.453 134.188 102.453 135.844 103.266C137.531 104.078 139.828 105.047 142.734 106.172C146.859 107.766 150.203 109.266 152.766 110.672C155.328 112.078 157.531 114.047 159.375 116.578C161.219 119.109 162.141 122.312 162.141 126.188C162.141 130.25 161.109 133.797 159.047 136.828C157.016 139.859 154.25 142.188 150.75 143.812C147.25 145.438 143.375 146.25 139.125 146.25ZM186.516 89.9062H165.75V79.2656H219.141V89.9062H198.422V145.5H186.516V89.9062ZM228.656 79.2656H272.719V90.1875H240.562V106.922H270.516V117.844H240.562V134.25H272.719V145.5H228.656V79.2656ZM306 146.25C301.969 146.25 298.141 145.516 294.516 144.047C290.922 142.578 287.875 140.391 285.375 137.484C282.906 134.547 281.328 130.984 280.641 126.797L292.453 123.797C292.859 127.734 294.312 130.703 296.812 132.703C299.344 134.703 302.469 135.703 306.188 135.703C308.469 135.703 310.438 135.344 312.094 134.625C313.75 133.875 315 132.859 315.844 131.578C316.688 130.297 317.109 128.859 317.109 127.266C317.109 125.359 316.516 123.734 315.328 122.391C314.172 121.047 312.719 119.938 310.969 119.062C309.219 118.188 306.812 117.141 303.75 115.922C299.75 114.328 296.516 112.859 294.047 111.516C291.578 110.141 289.453 108.234 287.672 105.797C285.922 103.359 285.047 100.281 285.047 96.5625C285.047 92.7812 285.969 89.5156 287.812 86.7656C289.688 83.9844 292.188 81.875 295.312 80.4375C298.469 79 301.938 78.2812 305.719 78.2812C309.969 78.2812 313.844 79.25 317.344 81.1875C320.844 83.0938 323.688 86 325.875 89.9062L315.984 95.9531C314.828 93.7031 313.312 91.9688 311.438 90.75C309.562 89.5 307.516 88.875 305.297 88.875C303.734 88.875 302.312 89.1719 301.031 89.7656C299.781 90.3594 298.781 91.2031 298.031 92.2969C297.312 93.3594 296.953 94.5781 296.953 95.9531C296.953 97.6406 297.5 99.0781 298.594 100.266C299.688 101.453 301.062 102.453 302.719 103.266C304.406 104.078 306.703 105.047 309.609 106.172C313.734 107.766 317.078 109.266 319.641 110.672C322.203 112.078 324.406 114.047 326.25 116.578C328.094 119.109 329.016 122.312 329.016 126.188C329.016 130.25 327.984 133.797 325.922 136.828C323.891 139.859 321.125 142.188 317.625 143.812C314.125 145.438 310.25 146.25 306 146.25Z" fill="white"/>
</svg>
